<?xml version="1.0" standalone="no"?>
<!DOCTYPE svg PUBLIC "-//W3C//DTD SVG 20010904//EN"
 "http://www.w3.org/TR/2001/REC-SVG-20010904/DTD/svg10.dtd">
<svg version="1.0" xmlns="http://www.w3.org/2000/svg"
 width="631.000000pt" height="631.000000pt" viewBox="0 0 631.000000 631.000000"
 preserveAspectRatio="xMidYMid meet">
<metadata>
Created by potrace 1.11, written by Peter Selinger 2001-2013
</metadata>
<g transform="translate(0.000000,631.000000) scale(0.100000,-0.100000)"
fill="#000000" stroke="none">
<path d="M1852 6297 c-162 -59 -210 -278 -86 -401 116 -117 295 -91 388 56
l17 27 1924 0 c1468 0 1924 -3 1927 -12 3 -10 2 -217 -1 -252 -1 -7 -358 -10
-1052 -10 l-1052 1 -16 24 c-98 146 -273 172 -391 57 -95 -92 -95 -249 1 -345
53 -54 85 -67 169 -67 65 0 82 4 123 28 27 16 63 49 80 73 17 24 36 44 41 45
6 0 508 2 1116 3 608 2 1108 4 1111 4 3 1 15 11 27 22 22 20 22 26 22 285 0
145 -3 271 -6 280 -18 47 71 45 -2046 46 l-1983 0 -30 47 c-56 86 -181 126
-283 89z m165 -174 c27 -41 20 -93 -16 -125 -65 -58 -161 -14 -161 75 0 84
131 121 177 50z m1728 -436 c18 -15 28 -36 32 -64 5 -37 2 -45 -25 -73 -86
-85 -212 18 -147 121 27 43 99 52 140 16z"/>
<path d="M1845 5703 c-208 -18 -418 -91 -598 -210 -93 -62 -270 -238 -330
-329 -399 -605 -215 -1397 408 -1762 88 -51 200 -96 324 -130 95 -26 100 -26
566 -31 l469 -6 1 -133 0 -133 -480 4 c-478 4 -480 4 -588 30 -185 45 -312 96
-460 186 -349 212 -607 577 -692 981 l-16 74 46 39 c136 117 119 317 -35 401
-63 34 -130 40 -199 16 -191 -64 -218 -332 -45 -435 l51 -30 17 -90 c41 -212
155 -475 283 -654 245 -341 626 -589 1032 -671 148 -29 215 -33 651 -32 223 0
412 -2 420 -4 13 -3 15 -77 13 -591 0 -324 -1 -592 -2 -598 -1 -7 -224 -9
-653 -8 l-653 2 -15 23 c-28 45 -100 105 -138 116 -164 49 -319 -59 -323 -225
-3 -141 100 -246 241 -247 93 -1 173 46 215 125 l14 26 655 0 c470 0 656 -3
657 -11 5 -58 4 -234 -2 -246 -6 -13 -132 -15 -1051 -13 -573 0 -1046 2 -1049
2 -3 1 -19 21 -36 45 -17 24 -53 57 -80 73 -41 24 -59 28 -118 28 -80 -1 -129
-22 -182 -77 -110 -116 -72 -312 75 -384 26 -13 58 -19 107 -19 100 1 155 33
216 125 l16 24 1051 1 c579 0 1052 -2 1053 -5 7 -32 2 -254 -6 -260 -5 -4
-121 -8 -257 -8 l-248 0 -20 33 c-83 135 -272 161 -379 53 -102 -104 -103
-251 -1 -350 79 -77 180 -91 280 -40 40 20 63 40 85 74 l30 47 260 0 260 1 0
-224 c0 -224 0 -224 24 -250 l24 -26 268 0 c248 0 268 1 290 19 24 19 24 21
27 250 l3 231 647 1 c356 0 661 2 677 4 17 2 57 6 90 10 33 3 101 15 150 26
570 126 1037 543 1230 1099 62 181 77 269 82 511 4 194 3 228 -17 330 -12 63
-37 161 -56 219 -34 104 -159 369 -192 406 -9 11 -35 46 -57 79 -56 84 -286
310 -375 370 -41 28 -77 52 -80 55 -25 25 -250 134 -340 165 -249 85 -326 93
-849 94 -244 1 -447 4 -452 7 -5 3 -9 271 -9 600 0 559 1 594 18 595 22 1
1923 1 1939 0 6 -1 14 -9 18 -20 9 -29 68 -86 111 -106 48 -23 168 -24 211 -1
39 20 94 71 86 79 -3 4 -2 7 4 7 21 0 43 68 43 134 0 244 -310 332 -446 126
l-25 -37 -1041 0 -1042 0 -28 -32 -28 -31 -1 -1388 0 -1387 -47 -30 c-150 -96
-131 -336 34 -415 59 -29 157 -29 214 0 162 83 178 310 29 417 l-49 35 2 182
3 181 407 2 c363 1 415 -1 475 -17 150 -39 230 -90 338 -214 34 -39 80 -132
103 -206 36 -119 23 -292 -29 -407 -31 -68 -100 -163 -144 -198 -20 -16 -42
-35 -49 -41 -48 -44 -188 -103 -266 -111 -30 -3 -332 -6 -670 -6 l-615 0 -5
2039 c-3 1121 -6 2040 -8 2041 -1 2 -14 11 -29 20 -25 17 -73 18 -718 18 -379
0 -703 -1 -720 -2z m1283 -182 c9 -1 12 -542 12 -2671 l0 -2670 -135 0 -135 0
0 2494 c0 1561 -4 2504 -10 2520 -22 59 -18 59 -513 59 -248 0 -478 -3 -510
-7 -307 -37 -578 -278 -657 -586 -29 -115 -23 -316 14 -425 86 -254 278 -438
538 -517 69 -21 94 -22 503 -25 237 -2 435 -5 440 -7 8 -3 12 -173 6 -254 -2
-22 -871 -11 -966 11 -309 74 -576 282 -715 557 -177 351 -139 790 96 1099
187 245 458 395 763 420 58 5 1206 6 1269 2z m2881 -275 c73 -38 65 -139 -15
-172 -99 -41 -175 92 -92 161 33 28 66 32 107 11z m-3325 -769 c1 -381 -3
-592 -9 -597 -5 -4 -197 -7 -425 -6 l-415 2 -80 28 c-265 91 -430 333 -411
606 8 120 32 193 97 290 89 133 230 229 384 260 22 4 224 7 449 6 l410 -1 0
-588z m-2295 79 c55 -29 66 -99 23 -147 -69 -77 -193 -5 -159 94 19 58 80 82
136 53z m4356 -880 c17 -3 55 -11 85 -17 363 -72 724 -317 935 -633 204 -306
288 -643 249 -1000 -76 -702 -639 -1262 -1339 -1335 -44 -4 -367 -8 -717 -9
l-638 0 0 134 c0 74 3 134 8 135 4 1 304 2 667 3 718 3 735 4 912 62 407 135
723 486 817 906 4 19 17 32 40 42 42 17 104 79 121 120 51 122 -2 270 -114
320 -31 14 -42 26 -47 50 -88 416 -428 785 -835 910 -165 50 -239 56 -696 56
l-421 0 -1 136 0 135 472 -4 c260 -2 486 -7 502 -11z m27 -469 c366 -98 641
-360 752 -716 25 -79 26 -85 10 -94 -63 -35 -113 -125 -114 -201 0 -79 19
-126 75 -182 l51 -52 -18 -68 c-79 -286 -310 -548 -595 -673 -91 -40 -212 -70
-314 -79 -46 -4 -356 -7 -689 -6 l-605 0 -3 136 -3 135 653 1 c629 0 656 1
733 21 298 78 516 305 580 601 20 98 13 287 -15 375 -99 310 -352 521 -670
559 -25 3 -221 5 -436 5 l-392 1 -1 136 -1 136 453 -4 c450 -4 452 -5 549 -31z
m-1008 -969 c41 -58 -8 -147 -81 -148 -39 0 -89 40 -96 77 -6 30 13 86 34 98
47 30 112 18 143 -27z m1980 0 c44 -62 -8 -148 -89 -148 -38 0 -84 48 -87 90
-2 44 26 88 61 96 14 3 31 7 36 9 16 4 63 -23 79 -47z m-4547 -663 c54 -36 51
-124 -6 -158 -34 -20 -60 -21 -95 -6 -23 11 -56 62 -56 89 0 27 34 73 63 85
36 15 59 12 94 -10z m-792 -458 c18 -15 28 -36 32 -64 5 -37 2 -45 -25 -73
-41 -40 -97 -42 -136 -4 -14 15 -26 34 -27 43 -3 45 5 68 32 94 37 34 87 36
124 4z m1593 -452 c55 -46 44 -133 -20 -159 -44 -19 -83 -10 -113 26 -39 47
-29 108 23 141 38 24 76 21 110 -8z"/>
</g>
</svg>
