<svg id="Layer_1" data-name="Layer 1" xmlns="http://www.w3.org/2000/svg" viewBox="0 0 604.2 102.71"><defs><style>.cls-1,.cls-2{fill:#fff;}.cls-1{opacity:0.5;}</style></defs><title>bckrm-logo-type-wht</title><polygon class="cls-1" points="0 18.84 0 56.63 0 58.12 0 83.83 41.87 64.99 41.87 0 0 18.84"/><polygon class="cls-2" points="41.87 37.72 41.87 75.51 41.87 77 41.87 102.71 0 83.87 0 18.88 41.87 37.72"/><polygon class="cls-1" points="90.15 83.75 48.28 64.91 48.28 37.72 90.15 56.56 90.15 83.75"/><polygon class="cls-2" points="90.15 56.68 48.28 75.51 48.28 102.71 90.15 83.87 90.15 56.68"/><polygon class="cls-1" points="90.15 46.03 48.28 27.19 48.28 0 90.15 18.84 90.15 46.03"/><polygon class="cls-2" points="90.15 18.88 48.28 37.72 48.28 64.91 90.15 46.07 90.15 18.88"/><path class="cls-2" d="M251.35,297.8c7.4,0,14.81,3.46,14.81,14.52s-8.95,18.37-22.31,18.37H207.21V266.27h36.64c12.21,0,20.38,6.73,20.38,16.92s-7.59,14.23-12.88,14.23Zm-22.88-5.58h8.94c3.66,0,6.06-2,6.06-5s-2.41-5-6.06-5h-8.94Zm9.9,22.5c3.65,0,6.06-2.21,6.06-5.67,0-3-2.4-4.91-6.06-4.91h-9.9v10.57Z" transform="translate(-92.62 -247.11)"/><path class="cls-2" d="M327,330.69H306.32v-4A17.65,17.65,0,0,1,293,332.13c-13.94,0-23.46-10.39-23.46-25.87S279,280.4,293,280.4a17.65,17.65,0,0,1,13.37,5.48v-4H327Zm-20.67-24.42c0-4.71-3.17-8.85-8.08-8.85s-8,4.14-8,8.85,3,8.85,8,8.85S306.32,311,306.32,306.27Z" transform="translate(-92.62 -247.11)"/><path class="cls-2" d="M385.23,311.56c-1.73,12.5-12.69,20.58-25.87,20.58-15.1,0-27.6-10.39-27.6-25.87s12.5-25.86,27.6-25.86c13.08,0,24,7.88,25.77,20.29l-18.75,3.46c-.68-4.23-3.47-6.73-7-6.73-4.71,0-7.79,4.14-7.79,8.85s3.08,8.85,7.79,8.85c3.56,0,6.35-2.5,7-6.83Z" transform="translate(-92.62 -247.11)"/><path class="cls-2" d="M424.05,330.69l-10.49-14.81h-2.88v14.81H390V255.6l20.68,5.86v36.15h1.83l11.34-15.77H447.7L430.4,305l18.85,25.67Z" transform="translate(-92.62 -247.11)"/><path class="cls-2" d="M491.42,281.55l-.67,21.73h-2.89c-8.84,0-15.58,2.31-15.58,13.08v14.33H451.61V281.84h20.67v10.1c2.69-6.15,7.31-10.68,15.58-10.68A20.12,20.12,0,0,1,491.42,281.55Z" transform="translate(-92.62 -247.11)"/><path class="cls-2" d="M548.71,306.27c0,15.48-12.69,25.87-27.79,25.87s-27.79-10.39-27.79-25.87,12.69-25.86,27.79-25.86S548.71,290.78,548.71,306.27Zm-19.81,0c0-4.71-3.27-8.85-8-8.85s-8,4.14-8,8.85,3.27,8.85,8,8.85S528.9,311,528.9,306.27Z" transform="translate(-92.62 -247.11)"/><path class="cls-2" d="M607.14,306.27c0,15.48-12.69,25.87-27.79,25.87s-27.79-10.39-27.79-25.87,12.69-25.86,27.79-25.86S607.14,290.78,607.14,306.27Zm-19.81,0c0-4.71-3.27-8.85-8-8.85s-8,4.14-8,8.85,3.27,8.85,8,8.85S587.33,311,587.33,306.27Z" transform="translate(-92.62 -247.11)"/><path class="cls-2" d="M696.82,300.21v30.48H676.15V304.63c0-3.56-2.31-6-5.38-6-3.56,0-6.06,3.18-6.06,7.31v24.71H644V304.63c0-3.56-2.31-6-5.57-6-3.47,0-5.88,3.18-5.88,7.31v24.71H611.91V281.84h20.67v5.39c3.08-4.23,7.69-6.83,14.14-6.83,7.12,0,12.69,3.17,15.67,8.75a19,19,0,0,1,16.45-8.75C689.61,280.4,696.82,288.29,696.82,300.21Z" transform="translate(-92.62 -247.11)"/></svg>