<?xml version="1.0" encoding="utf-8"?>
<!-- Generator: Adobe Illustrator 15.0.2, SVG Export Plug-In . SVG Version: 6.00 Build 0)  -->
<!DOCTYPE svg PUBLIC "-//W3C//DTD SVG 1.1//EN" "http://www.w3.org/Graphics/SVG/1.1/DTD/svg11.dtd">
<svg version="1.1" id="Layer_1" xmlns="http://www.w3.org/2000/svg" xmlns:xlink="http://www.w3.org/1999/xlink" x="0px" y="0px"
	 width="895.854px" height="97.178px" viewBox="0 0 895.854 97.178" enable-background="new 0 0 895.854 97.178"
	 xml:space="preserve">
<path fill-rule="evenodd" clip-rule="evenodd" fill="#FFFFFF" d="M0,94.332c0.629,0.03,1.259,0.086,1.888,0.086
	c297.359,0.004,594.719,0.004,892.079,0c0.63,0,1.259-0.056,1.887-0.086c0,0.95,0,1.898,0,2.846c-298.617,0-597.236,0-895.854,0
	C0,96.23,0,95.282,0,94.332z"/>
<path fill-rule="evenodd" clip-rule="evenodd" fill="#FFFFFF" d="M895.854,2.628c-0.631,0.006-1.263,0.015-1.896,0.015
	c-297.354,0-594.708,0-892.062,0C1.264,2.644,0.632,2.635,0,2.628c0-0.843,0-1.686,0-2.53c0.682-0.032,1.364-0.097,2.044-0.097
	C299.3,0,596.555,0,893.81,0.001c0.68,0,1.362,0.064,2.044,0.097C895.854,0.943,895.854,1.786,895.854,2.628z"/>
<path fill-rule="evenodd" clip-rule="evenodd" fill="#FFFFFF" d="M526.835,23.207c-2.336,5.106-4.673,10.21-7.007,15.316
	c-5.575,12.2-11.146,24.402-16.727,36.601c-0.371,0.812-0.71,1.662-1.225,2.38c-0.395,0.554-1.051,1.285-1.574,1.272
	c-0.489-0.014-1.128-0.826-1.4-1.422c-2.121-4.642-4.154-9.322-6.24-13.979c-5.725-12.769-11.459-25.53-17.189-38.295
	c-0.172-0.381-0.359-0.757-0.682-1.424c-0.086,0.532-0.168,0.792-0.166,1.051c0.01,13.277,0,26.556,0.064,39.833
	c0.012,1.777,0.301,3.568,0.613,5.324c0.486,2.715,1.982,4.816,4.174,6.48c0.494,0.374,0.766,1.034,1.141,1.563
	c-0.609,0.193-1.217,0.549-1.83,0.556c-4.258,0.045-8.518,0.034-12.773-0.007c-0.475-0.004-0.943-0.311-1.414-0.476
	c0.182-0.343,0.273-0.815,0.557-1.01c3.973-2.747,5.102-6.936,5.68-11.345c0.281-2.132,0.34-4.307,0.346-6.462
	c0.033-11.168,0.023-22.339,0.002-33.51c-0.002-1.364-0.137-2.732-0.271-4.092c-0.221-2.245-1.262-3.958-3.277-5.087
	c-0.486-0.272-0.809-0.847-1.205-1.282c0.59-0.247,1.168-0.669,1.77-0.703c1.041-0.064,2.098,0.171,3.148,0.176
	c1.938,0.008,3.885,0.025,5.82-0.116c2.779-0.201,2.914-0.158,4.078,2.325c7.253,15.484,14.517,30.962,21.775,46.442
	c0.219,0.465,0.459,0.922,0.824,1.657c0.902-1.921,1.696-3.601,2.48-5.284c6.734-14.445,13.48-28.884,20.174-43.351
	c0.521-1.125,1.119-1.546,2.361-1.507c3.105,0.092,6.217,0.009,9.324,0.068c0.484,0.009,0.963,0.395,1.443,0.605
	c-0.354,0.336-0.656,0.781-1.074,0.986c-1.604,0.798-2.445,2.112-2.743,3.815c-0.127,0.723-0.212,1.465-0.212,2.196
	c0.013,13.015-0.071,26.03,0.139,39.043c0.059,3.646,0.936,7.289,1.542,10.915c0.287,1.721,1.21,3.102,2.781,4.03
	c0.464,0.272,0.731,0.87,1.09,1.318c-0.607,0.219-1.214,0.626-1.82,0.624c-4.105-0.023-8.212-0.158-12.316-0.197
	c-1.417-0.013-2.837,0.189-4.257,0.204c-0.33,0.004-0.667-0.354-0.999-0.545c0.18-0.281,0.3-0.716,0.551-0.814
	c3.439-1.36,4.205-4.328,4.529-7.523c0.195-1.935,0.311-3.886,0.315-5.831c0.027-13.174,0.015-26.345,0.015-39.519
	c0-0.312,0-0.624,0-0.938C527.058,23.25,526.947,23.229,526.835,23.207z"/>
<path fill-rule="evenodd" clip-rule="evenodd" fill="#FFFFFF" d="M44.51,44.003c3.962,1.145,8.292,2.095,12.384,3.662
	c4.475,1.714,7.985,4.714,9.198,9.683c1.529,6.272-1.271,12.432-7.358,16.442c-4.837,3.188-10.225,4.351-15.903,4.375
	C31.935,78.21,21.038,78.16,10.14,78.19c-2.578,0.009-5.154,0.199-7.732,0.258c-0.371,0.008-0.748-0.249-1.121-0.385
	c0.195-0.33,0.33-0.888,0.595-0.956c3.96-1.053,4.706-4.39,5.316-7.669c0.46-2.471,0.69-5.018,0.704-7.531
	c0.069-12.275,0.04-24.553,0.017-36.828c-0.002-1.259-0.136-2.524-0.303-3.772c-0.292-2.166-1.319-3.836-3.358-4.838
	c-0.442-0.217-0.721-0.77-1.074-1.167C3.653,15.05,4.105,14.75,4.6,14.561c0.333-0.126,0.726-0.135,1.091-0.128
	c11.32,0.184,22.644,0.233,33.956,0.632c4.935,0.174,9.828,1.128,14.336,3.408c8.196,4.147,9.408,14.371,2.388,20.315
	c-3.087,2.614-6.75,4.025-10.639,4.928C45.176,43.842,44.623,43.975,44.51,44.003z M16.379,45.823
	c0,5.265-0.077,10.427,0.028,15.584c0.065,3.202,0.223,6.425,0.68,9.588c0.407,2.827,1.772,3.858,4.574,4.135
	c1.203,0.118,2.42,0.195,3.626,0.163c6.199-0.161,12.458,0.12,18.58-0.656c10.52-1.336,15.583-11.526,10.657-20.634
	c-2.023-3.742-5.453-5.684-9.376-6.689C35.739,44.901,26.133,45.66,16.379,45.823z M16.422,42.725
	c5.766,0,11.341,0.129,16.906-0.054c2.866-0.092,5.773-0.504,8.559-1.19c3.926-0.963,6.906-3.253,8.233-7.298
	c2.302-7.015-0.352-12.809-7.053-15.063c-1.928-0.649-3.975-1.207-5.988-1.287c-6.674-0.268-13.358-0.3-20.039-0.412
	c-0.19-0.004-0.384,0.099-0.619,0.165C16.422,25.941,16.422,34.243,16.422,42.725z"/>
<path fill-rule="evenodd" clip-rule="evenodd" fill="#FFFFFF" d="M214.433,68.174c2.745-5.892,5.317-11.411,7.89-16.929
	c2.933-6.295,5.891-12.578,8.775-18.896c0.459-1.006,0.988-1.433,2.115-1.386c2.104,0.088,4.215,0.018,6.323,0.03
	c0.499,0.004,0.996,0.086,1.723,0.152c-0.281,0.468-0.369,0.843-0.576,0.929c-2.265,0.937-2.582,2.88-2.589,4.962
	c-0.018,5.27-0.048,10.54,0.004,15.81c0.052,5.213,0.137,10.427,0.344,15.634c0.069,1.718,0.547,3.42,0.869,5.123
	c0.266,1.406,0.933,2.543,2.227,3.285c0.305,0.176,0.458,0.613,0.68,0.931c-0.397,0.199-0.792,0.566-1.19,0.57
	c-4.154,0.037-8.31,0.02-12.464-0.009c-0.272-0.002-0.596-0.178-0.789-0.377c-0.082-0.084,0.05-0.588,0.191-0.646
	c3.575-1.469,3.636-4.73,3.671-7.742c0.122-10.535,0.047-21.073-0.232-31.753c-0.214,0.405-0.45,0.804-0.641,1.22
	c-5.65,12.342-11.282,24.692-16.966,37.019c-0.438,0.95-1.244,1.732-1.877,2.593c-0.607-0.845-1.375-1.617-1.796-2.548
	c-5.567-12.32-11.086-24.662-16.62-36.995c-0.106-0.237-0.233-0.463-0.471-0.931c-0.111,0.414-0.215,0.622-0.215,0.83
	c-0.007,9.695-0.029,19.393,0.009,29.088c0.013,3.483,0.715,6.724,3.876,8.87c0.27,0.183,0.413,0.556,0.822,1.13
	c-4.314,0-8.334,0-12.419,0c0.081-0.382,0.066-0.527,0.126-0.57c3.817-2.771,4.726-6.864,4.779-11.166
	c0.119-9.537,0.059-19.078,0.04-28.614c-0.004-2.359-0.509-4.515-2.891-5.72c-0.264-0.133-0.383-0.549-0.569-0.832
	c0.29-0.174,0.576-0.493,0.867-0.495c2.886-0.034,5.775-0.088,8.655,0.056c0.507,0.025,1.147,0.843,1.428,1.435
	c4.18,8.851,8.306,17.725,12.455,26.59C211.397,61.812,212.828,64.792,214.433,68.174z"/>
<path fill-rule="evenodd" clip-rule="evenodd" fill="#FFFFFF" d="M657.225,77.974c0.764-0.606,1.124-1.049,1.585-1.23
	c1.622-0.64,2.293-1.913,2.139-3.494c-0.154-1.605-0.389-3.285-1.013-4.75c-2.887-6.77-5.906-13.484-8.938-20.19
	c-0.169-0.377-0.877-0.725-1.338-0.727c-7.058-0.045-14.117-0.045-21.175-0.002c-0.468,0.004-1.178,0.328-1.359,0.703
	c-2.797,5.771-5.574,11.555-8.233,17.39c-0.619,1.364-0.861,2.919-1.143,4.413c-0.556,2.955,0.599,5.141,3.258,6.492
	c0.538,0.274,1.005,0.692,1.507,1.042c-0.056,0.142-0.111,0.283-0.167,0.425c-0.38,0.085-0.761,0.242-1.141,0.242
	c-4.688,0.02-9.374,0.025-14.06-0.005c-0.409-0.004-0.817-0.3-1.225-0.461c0.188-0.4,0.305-0.864,0.579-1.196
	c1.928-2.342,4.271-4.435,5.769-7.023c3.946-6.824,7.617-13.812,11.237-20.819c5.938-11.496,11.745-23.062,17.641-34.582
	c0.251-0.489,0.843-1.139,1.253-1.124c0.433,0.017,0.99,0.669,1.235,1.168c8.908,18.243,17.784,36.502,26.669,54.754
	c1.524,3.131,3.607,5.797,6.509,7.789c0.341,0.233,0.527,0.692,0.784,1.049c-0.36,0.154-0.718,0.439-1.078,0.439
	c-6.003,0.025-12.005,0.017-18.008,0.006C658.27,78.28,658.028,78.169,657.225,77.974z M639.529,24.211
	c-3.622,6.896-7.119,13.562-10.688,20.36c6.987,0,13.687,0,20.663,0C646.16,37.747,642.911,31.114,639.529,24.211z"/>
<path fill-rule="evenodd" clip-rule="evenodd" fill="#FFFFFF" d="M160.243,53.951c1.287,0.476,2.163,0.814,3.048,1.128
	c4.074,1.433,6.87,4.207,8.484,8.175c0.812,1.994,1.497,4.042,2.263,6.056c1.245,3.271,2.191,6.754,5.991,8.268
	c-0.051,0.129-0.104,0.26-0.155,0.388c-0.41,0.071-0.817,0.2-1.227,0.202c-2.267,0.021-4.533,0.013-6.799,0.011
	c-2.31-0.005-2.552-0.199-3.298-2.338c-1.44-4.119-3.046-8.186-4.327-12.353c-1.957-6.375-6.257-9.15-12.764-9.002
	c-3.62,0.083-7.242,0.015-10.878,0.015c0,4.755-0.044,9.374,0.026,13.991c0.021,1.462,0.249,2.941,0.554,4.379
	c0.412,1.934,1.022,3.804,3.271,4.441c0.191,0.053,0.315,0.343,0.754,0.854c-5.417,0-10.472,0-15.592,0
	c0.074-0.301,0.065-0.536,0.154-0.582c3.306-1.711,3.847-4.891,3.997-8.065c0.265-5.625,0.288-11.265,0.351-16.9
	c0.051-4.585,0.015-9.17,0.008-13.755c-0.003-2.861-0.144-5.664-3.319-7.038c-0.125-0.052-0.208-0.231-0.273-0.371
	c-0.04-0.084-0.008-0.202-0.008-0.525c0.606-0.082,1.25-0.245,1.894-0.245c7.851,0.011,15.705-0.034,23.553,0.104
	c4.751,0.084,9.463,0.646,13.798,2.852c6.649,3.387,7.425,11.9,1.494,16.453c-2.525,1.938-5.47,2.88-8.56,3.434
	C162.011,53.645,161.34,53.758,160.243,53.951z M140.499,52.013c0.421,0.06,0.775,0.156,1.13,0.156
	c3.843,0.011,7.694,0.142,11.529-0.043c2.605-0.124,5.271-0.412,7.767-1.124c5.693-1.621,7.055-6.521,6.219-11.029
	c-0.665-3.583-3.682-6.328-8.077-6.626c-6.077-0.414-12.191-0.244-18.291-0.317c-0.081-0.002-0.162,0.113-0.278,0.199
	C140.499,39.452,140.499,45.696,140.499,52.013z"/>
<path fill-rule="evenodd" clip-rule="evenodd" fill="#FFFFFF" d="M890.778,77.841c-3.42,0.197-6.774,0.721-10.092-0.02
	c-0.527-0.117-0.963-1.18-1.221-1.883c-1.58-4.347-3.144-8.698-4.625-13.079c-1.761-5.196-5.141-8.209-10.8-8.243
	c-4.195-0.024-8.392-0.005-12.769-0.005c0.169,6.222-0.459,12.434,0.841,18.569c0.395,1.859,1.1,3.539,3.192,4.128
	c0.195,0.056,0.326,0.339,0.783,0.848c-5.426,0-10.48,0-15.586,0c0.047-0.264,0.023-0.504,0.104-0.547
	c3.294-1.709,3.873-4.872,4.006-8.049c0.26-6.099,0.281-12.208,0.35-18.313c0.048-4.214,0.016-8.428,0.007-12.643
	c-0.005-2.764-0.204-5.442-3.267-6.733c-0.122-0.052-0.206-0.231-0.276-0.366c-0.045-0.086-0.027-0.204-0.066-0.543
	c0.562-0.095,1.139-0.276,1.716-0.276c8.269,0.023,16.538,0.002,24.806,0.142c3.956,0.068,7.865,0.696,11.561,2.234
	c3.713,1.544,6.252,4.07,6.568,8.297c0.34,4.493-1.623,7.857-5.573,9.766c-2.801,1.354-5.885,2.115-8.653,3.073
	c0.496,0.181,1.317,0.498,2.149,0.785c4.065,1.4,6.972,4.068,8.612,8.035c0.943,2.282,1.698,4.639,2.597,6.94
	C886.326,72.985,887.295,76.186,890.778,77.841z M851.353,52.085c4.662,0,9.127,0.021,13.595-0.006
	c2.914-0.02,5.783-0.346,8.444-1.662c3.604-1.784,4.9-4.883,4.834-8.698c-0.062-3.663-1.872-6.262-5.252-7.497
	c-1.938-0.71-4.072-1.133-6.136-1.21c-4.681-0.174-9.373-0.056-14.062-0.049c-0.454,0-0.909,0.064-1.424,0.103
	C851.353,39.431,851.353,45.68,851.353,52.085z"/>
<path fill-rule="evenodd" clip-rule="evenodd" fill="#FFFFFF" d="M314.956,37.609c-0.03,0.346-0.088,0.693-0.087,1.038
	c0.015,9.799,0.008,19.599,0.089,29.397c0.013,1.559,0.333,3.14,0.691,4.666c0.437,1.861,1.469,3.358,3.223,4.283
	c0.343,0.18,0.626,0.474,0.937,0.714c-0.032,0.14-0.064,0.278-0.096,0.418c-4.369,0-8.736,0-13.103,0
	c-0.044-0.115-0.088-0.231-0.131-0.348c0.346-0.253,0.66-0.592,1.045-0.744c2.274-0.902,3.538-2.683,3.965-4.958
	c0.405-2.159,0.662-4.379,0.674-6.575c0.056-8.955,0.004-17.913-0.031-26.87c-0.012-2.827-0.61-5.361-3.608-6.593
	c-0.248-0.101-0.352-0.553-0.523-0.845c0.292-0.165,0.583-0.476,0.874-0.476c3.312,0.002,6.624,0.034,9.935,0.117
	c0.333,0.007,0.73,0.342,0.976,0.629c6.647,7.752,13.261,15.53,19.916,23.274c3.055,3.554,6.189,7.04,9.276,10.565
	c0.263,0.303,0.434,0.683,0.647,1.025c0.153-0.09,0.306-0.183,0.459-0.274c0-0.448,0-0.896,0-1.347
	c-0.001-7.534,0.063-15.069-0.045-22.604c-0.028-1.913-0.441-3.866-0.973-5.717c-0.533-1.849-1.625-3.41-3.577-4.165
	c-0.308-0.118-0.487-0.568-0.726-0.864c0.329-0.217,0.633-0.508,0.994-0.624c0.334-0.107,0.729-0.025,1.097-0.025
	c2.836-0.002,5.673-0.005,8.509-0.005c0.42,0,0.858-0.062,1.255,0.035c0.323,0.077,0.759,0.296,0.845,0.551
	c0.073,0.212-0.219,0.733-0.47,0.845c-3.577,1.594-4.025,4.881-4.07,8.1c-0.15,10.536-0.083,21.074-0.125,31.61
	c-0.006,1.84-0.074,3.687-0.228,5.52c-0.061,0.724-0.438,1.42-0.671,2.13c-0.604-0.436-1.331-0.77-1.79-1.325
	c-2.046-2.477-3.929-5.091-6.025-7.519c-9.29-10.764-18.634-21.478-27.956-32.211c-0.276-0.319-0.538-0.649-0.806-0.976
	C315.201,37.514,315.079,37.562,314.956,37.609z"/>
<path fill-rule="evenodd" clip-rule="evenodd" fill="#FFFFFF" d="M735.059,77.667c0.37-0.33,0.761-0.641,1.106-0.997
	c0.77-0.796,1.944-1.499,2.187-2.438c0.654-2.523,1.223-5.146,1.262-7.739c0.139-9.691,0.06-19.387,0.054-29.082
	c-0.003-2.084-0.41-3.984-2.433-5.136c-0.221-0.125-0.484-0.618-0.414-0.719c0.177-0.249,0.516-0.454,0.824-0.525
	c0.403-0.092,0.838-0.043,1.259-0.043c11.433,0,22.867,0.026,34.297-0.032c1.352-0.006,1.933,0.384,2.23,1.705
	c0.542,2.408,1.3,4.766,1.913,7.158c0.079,0.315-0.168,0.715-0.264,1.075c-0.312-0.142-0.764-0.195-0.914-0.436
	c-3.116-4.984-8.021-6.697-13.459-6.966c-5.46-0.268-10.941-0.06-16.527-0.06c0,5.982,0,12.011,0,18.226
	c3.83,0,7.604,0.052,11.377-0.019c2.154-0.041,4.306-0.269,6.457-0.438c2.708-0.215,4.634-1.513,5.687-4.077
	c0.144-0.346,0.644-0.545,0.979-0.811c0.163,0.358,0.465,0.714,0.467,1.072c0.034,3.74,0.03,7.479,0.003,11.222
	c-0.003,0.374-0.219,0.747-0.385,1.274c-0.347-0.274-0.637-0.384-0.718-0.581c-1.458-3.57-4.617-4.513-7.937-4.768
	c-4.927-0.375-9.883-0.386-14.823-0.588c-1.013-0.04-1.259,0.414-1.227,1.323c0.188,5.522,0.302,11.049,0.545,16.569
	c0.101,2.322,1.164,3.551,3.51,3.735c7.592,0.601,15.16,0.603,22.444-2.11c2.657-0.99,4.986-2.469,6.679-4.84
	c0.283-0.397,0.902-0.549,1.368-0.815c0.058,0.523,0.281,1.096,0.147,1.565c-0.735,2.578-1.593,5.121-2.331,7.697
	c-0.246,0.861-0.647,1.145-1.541,1.128c-3.161-0.056-6.322-0.021-9.483-0.021c-10.116,0-20.231,0-30.347,0c-0.571,0-1.139,0-1.71,0
	C735.248,78.008,735.153,77.839,735.059,77.667z"/>
<path fill-rule="evenodd" clip-rule="evenodd" fill="#FFFFFF" d="M833.571,67.952c-0.051,0.509-0.025,1.04-0.169,1.521
	c-0.774,2.569-1.624,5.115-2.376,7.69c-0.238,0.809-0.635,1.034-1.45,1.031c-13.545-0.023-27.087-0.015-40.63-0.025
	c-0.388,0-0.778-0.113-1.625-0.244c0.658-0.588,0.956-1.064,1.357-1.176c1.546-0.429,2.272-1.614,2.518-2.972
	c0.499-2.786,1.059-5.606,1.104-8.418c0.138-8.955,0.041-17.915,0.055-26.875c0.004-2.614-0.228-5.093-2.892-6.519
	c-0.097-0.052-0.099-0.277-0.228-0.685c0.625-0.103,1.19-0.276,1.759-0.276c11.752-0.018,23.502-0.009,35.254-0.03
	c0.913-0.002,1.426,0.195,1.671,1.196c0.585,2.4,1.325,4.762,1.973,7.146c0.129,0.477,0.12,0.987,0.228,1.95
	c-0.723-0.475-1.192-0.624-1.396-0.941c-2.661-4.146-6.674-6.207-11.349-6.584c-6.12-0.491-12.281-0.455-18.531-0.65
	c0,6.342,0,12.37,0,18.57c3.769,0,7.493,0.066,11.214-0.024c2.363-0.058,4.723-0.328,7.079-0.538
	c2.43-0.219,4.062-1.519,5.076-3.723c0.199-0.434,0.751-0.706,1.139-1.051c0.14,0.47,0.396,0.941,0.401,1.413
	c0.034,3.479,0.025,6.955,0.011,10.433c-0.002,0.496-0.111,0.991-0.197,1.714c-0.468-0.315-0.828-0.42-0.92-0.642
	c-1.283-3.066-3.887-4.268-6.891-4.522c-5.589-0.474-11.198-0.712-16.848-1.051c0,5.243-0.019,10.018,0.016,14.793
	c0.008,1.153,0.139,2.316,0.317,3.457c0.398,2.586,1.394,3.536,4.058,3.74c2.097,0.16,4.209,0.259,6.312,0.21
	c4.95-0.113,9.896-0.343,14.631-2.046c3.025-1.09,5.764-2.564,7.688-5.27c0.287-0.402,0.826-0.626,1.246-0.931
	C833.307,67.733,833.44,67.843,833.571,67.952z"/>
<path fill-rule="evenodd" clip-rule="evenodd" fill="#FFFFFF" d="M78.46,31.168c0.666-0.062,1.27-0.172,1.875-0.172
	c11.593-0.009,23.185,0.013,34.778-0.036c1.233-0.005,1.765,0.375,2.044,1.565c0.529,2.249,1.221,4.463,1.823,6.697
	c0.131,0.486,0.169,0.999,0.318,1.926c-0.697-0.356-1.203-0.444-1.389-0.735c-3.345-5.239-8.596-6.749-14.287-7.021
	c-5.149-0.247-10.32-0.054-15.611-0.054c0,6.026,0,12.055,0,18.132c0.021,0.018,0.101,0.144,0.178,0.142
	c5.995-0.156,11.992-0.278,17.984-0.513c2.499-0.099,4.172-1.516,5.188-3.787c0.18-0.403,0.671-0.667,1.019-0.995
	c0.161,0.45,0.456,0.9,0.461,1.352c0.039,3.531,0.03,7.062,0.014,10.592c-0.002,0.479-0.122,0.958-0.217,1.657
	c-0.451-0.317-0.759-0.416-0.838-0.609c-1.306-3.221-4.066-4.379-7.159-4.643c-5.489-0.468-11.001-0.662-16.504-0.972
	c-0.009,0.136-0.016,0.271-0.025,0.407c-0.057,0.082-0.164,0.163-0.163,0.245c0.105,5.734,0.119,11.476,0.373,17.205
	c0.124,2.769,1.171,3.867,3.729,4.056c7.113,0.531,14.213,0.527,21.104-1.729c3.158-1.036,5.981-2.591,7.967-5.396
	c0.275-0.386,0.822-0.579,1.242-0.86c0.187,0.118,0.373,0.236,0.56,0.356c-1.021,3.377-2.042,6.757-3.043,10.07
	c-14.395,0-28.643,0-43.382,0c0.595-0.637,0.846-1.151,1.214-1.259c1.659-0.474,2.424-1.73,2.675-3.219
	c0.473-2.79,1.008-5.612,1.05-8.426c0.133-8.958,0.057-17.915,0.048-26.875c-0.003-2.49-0.262-4.888-2.822-6.236
	c-0.078-0.041-0.133-0.159-0.163-0.253C78.468,31.687,78.481,31.575,78.46,31.168z"/>
<path fill-rule="evenodd" clip-rule="evenodd" fill="#FFFFFF" d="M597.814,66.561c0.536,2.149,1.119,4.289,1.555,6.459
	c0.056,0.271-0.633,0.76-1.049,1.043c-7.083,4.827-14.949,6.339-23.327,5.17c-7.48-1.042-13.807-4.3-18.424-10.474
	c-7.113-9.509-6.059-28.537,8.957-35.921c11.008-5.414,21.898-4.522,32.247,2.198c1.097,0.712,1.456,1.431,0.927,2.696
	c-0.545,1.304-0.855,2.704-1.318,4.046c-0.195,0.568-0.518,1.094-0.946,1.982c-0.414-0.656-0.729-0.987-0.86-1.379
	c-2.579-7.746-8.826-10.914-16.937-10.541c-8.857,0.41-14.945,5.299-17.287,13.821c-2.048,7.455-1.651,14.821,1.829,21.827
	c6.936,13.959,25.835,11.452,31.786,2.863c0.566-0.817,1.015-1.716,1.529-2.571c0.251-0.419,0.527-0.824,0.793-1.235
	C597.462,66.55,597.638,66.557,597.814,66.561z"/>
<path fill-rule="evenodd" clip-rule="evenodd" fill="#FFFFFF" d="M301.754,78.085c-4.929,0-9.858,0-15.112,0
	c0.367-0.439,0.547-0.793,0.836-0.981c1.85-1.195,2.282-1.911,1.644-4.03c-0.755-2.509-1.684-4.977-2.706-7.392
	c-1.292-3.05-2.783-6.014-4.125-9.041c-0.387-0.875-0.844-1.268-1.861-1.257c-4.9,0.058-9.8,0-14.7,0.062
	c-0.553,0.007-1.384,0.353-1.605,0.785c-1.929,3.798-3.806,7.628-5.569,11.506c-0.602,1.32-0.95,2.787-1.22,4.225
	c-0.457,2.436,0.221,3.682,2.403,4.94c0.378,0.217,0.717,0.504,1.076,0.757c-0.04,0.136-0.079,0.272-0.118,0.408
	c-4.106,0-8.213,0-12.502,0c0.201-0.462,0.244-0.817,0.443-0.984c3.846-3.189,5.976-7.585,8.193-11.87
	c5.875-11.355,11.629-22.772,17.431-34.166c0.096-0.188,0.157-0.403,0.291-0.558c0.294-0.337,0.698-0.95,0.923-0.896
	c0.412,0.099,0.859,0.534,1.062,0.943c1.968,3.956,3.888,7.937,5.823,11.91c4.721,9.698,9.36,19.434,14.23,29.054
	c1.009,1.995,2.864,3.564,4.344,5.316c0.281,0.33,0.637,0.597,0.959,0.895C301.846,77.834,301.8,77.961,301.754,78.085z
	 M273.415,38.103c-2.688,5.13-5.208,9.938-7.805,14.895c5.149,0,9.998,0,15.104,0C278.268,48.004,275.921,43.22,273.415,38.103z"/>
<path fill-rule="evenodd" clip-rule="evenodd" fill="#FFFFFF" d="M706.103,78.402c-6.579,0-13.16,0.009-19.74-0.025
	c-0.377-0.002-0.755-0.38-1.132-0.583c0.215-0.262,0.384-0.687,0.651-0.762c3.738-1.038,4.257-4.133,4.395-7.227
	c0.228-5.1,0.228-10.21,0.238-15.318c0.011-5.897-0.045-11.795-0.133-17.69c-0.03-2.007-0.399-3.916-2.653-4.746
	c-0.228-0.083-0.534-0.574-0.472-0.686c0.154-0.269,0.504-0.597,0.776-0.599c3.993-0.047,7.986-0.052,11.977-0.03
	c0.232,0.003,0.62,0.29,0.652,0.489c0.034,0.226-0.195,0.654-0.405,0.731c-2.968,1.062-3.371,3.56-3.354,6.167
	c0.07,10.425,0.212,20.848,0.339,31.271c0.004,0.47,0.088,0.943,0.173,1.407c0.731,3.907,1.619,4.874,5.598,5.01
	c5.751,0.192,11.469-0.229,16.954-2.216c2.818-1.019,5.359-2.43,7.111-4.994c0.217-0.317,0.762-0.41,1.152-0.607
	c0.104,0.427,0.388,0.903,0.285,1.271c-0.794,2.777-1.617,5.551-2.561,8.28c-0.121,0.346-0.995,0.601-1.521,0.604
	c-6.11,0.041-12.222,0.028-18.332,0.028C706.103,78.253,706.103,78.327,706.103,78.402z"/>
<path fill-rule="evenodd" clip-rule="evenodd" fill="#FFFFFF" d="M428.216,56.417c-6.428,6.283-12.673,12.387-19.057,18.627
	c-6.33-6.185-12.629-12.339-19.061-18.62c6.337-6.198,12.608-12.329,19.052-18.632C415.503,44,421.803,50.153,428.216,56.417z
	 M409.151,40.273c-5.62,5.498-11.048,10.811-16.503,16.152c5.568,5.442,10.979,10.731,16.506,16.133
	c5.513-5.387,10.954-10.707,16.515-16.142C420.172,51.045,414.732,45.729,409.151,40.273z"/>
<path fill-rule="evenodd" clip-rule="evenodd" fill="#FFFFFF" d="M409.174,68.467c-3.997-4.3-7.712-8.297-11.261-12.118
	c3.419-3.635,7.154-7.608,11.078-11.782c3.924,4.262,7.639,8.297,11.238,12.207C416.978,60.213,413.234,64.172,409.174,68.467z"/>
</svg>
