<?xml version="1.0" encoding="utf-8"?>
<!-- Generator: Adobe Illustrator 18.1.1, SVG Export Plug-In . SVG Version: 6.00 Build 0)  -->
<svg version="1.1" id="Layer_1" xmlns="http://www.w3.org/2000/svg" xmlns:xlink="http://www.w3.org/1999/xlink" x="0px" y="0px"
	 viewBox="0 0 288 288" enable-background="new 0 0 288 288" xml:space="preserve">
<rect fill="#FFFF33" width="288" height="288"/>
<g>
	<path d="M39.2,38.7h100.9v20.2H59.4V79h80.7v20.2H59.4v20.2h80.7v20.2H39.2V38.7z"/>
	<path d="M150.2,38.7h20.2v80.7h83.5v20.2H150.2V38.7z"/>
	<path d="M140.1,149.6v100.9h-20.2v-80.7H99.7v80.7H79.6v-80.7H59.4v80.7H39.2V149.6H140.1z"/>
	<path d="M153.8,176.9v-15.2h12.4v2.1h-10.1v4.3h10.1v2.1h-10.1v4.6h10.1v2.1H153.8z"/>
	<path d="M177.4,172.5l-2,4.4h-2.7l7-15.2h2.6l7.1,15.2h-2.8l-2-4.4H177.4z M181,164.3l-2.8,6.2h5.6L181,164.3z"/>
	<path d="M199.4,176.9h-2.3v-15.2h8.4c3.3,0,5.1,1.4,5.1,4.3c0,1.7-0.6,2.6-2.1,3.5c1.6,0.8,1.8,1.4,2,4.9c0.1,1.7,0.2,2,0.9,2v0.5
		h-2.9c-0.2-0.9-0.3-1.1-0.4-3c-0.2-2.5-0.9-3.4-3-3.4h-5.6V176.9z M205.3,168.5c0.9,0,1.5-0.1,2-0.4c0.6-0.4,1-1.1,1-2
		c0-0.9-0.4-1.7-1-2c-0.5-0.2-1-0.4-2-0.4h-5.8v4.8H205.3z"/>
	<path d="M219.4,176.9v-15.2h2.3v13h9.5v2.1H219.4z"/>
	<path d="M241.1,176.9v-6.3l-6.7-8.9h3l4.9,6.9l4.9-6.9h2.9l-6.7,8.9v6.3H241.1z"/>
	<path d="M153.8,204.2V189h2.3v13h10.1v2.1H153.8z"/>
	<path d="M174.7,204.2V189h2.3v15.2H174.7z"/>
	<path d="M201,204.2l-0.3-2.1c-1.7,1.7-3.4,2.5-5.9,2.5c-4.8,0-8-3.2-8-7.9c0-4.8,3.4-8,8.4-8c2.4,0,4.4,0.7,5.8,2.1
		c0.9,0.9,1.3,1.7,1.7,3.1h-2.5c-0.4-1-0.7-1.5-1.4-2.1c-1-0.7-2.2-1.1-3.6-1.1c-3.6,0-6,2.4-6,5.9c0,3.7,2.4,6.1,6,6.1
		c1.9,0,3.5-0.7,4.5-2c0.6-0.7,0.8-1.4,1-2.6h-5v-2.1h7.1v8.3H201z"/>
	<path d="M224.8,204.2V197h-9.3v7.1h-2.3V189h2.3v6h9.3v-6h2.3v15.2H224.8z"/>
	<path d="M241.8,204.2v-13H236V189h14v2.1h-5.8v13H241.8z"/>
	<path d="M170.3,231.5V219l-6.1,12.5h-2.1l-6-12.5v12.5h-2.3v-15.2h3.4l6.1,12.8l6.2-12.8h3.2v15.2H170.3z"/>
	<path d="M201.5,216.3h6.8c2.4,0,3.8,0.3,5.1,1.1c1.8,1.2,2.8,3.4,2.8,6.5c0,2.8-0.8,4.8-2.3,6.1c-1.3,1.1-2.6,1.4-5.5,1.4h-6.8
		V216.3z M208.4,229.3c1.9,0,2.9-0.3,3.8-1c1-0.9,1.5-2.4,1.5-4.5c0-2.1-0.5-3.6-1.5-4.5c-0.8-0.7-1.8-1-3.8-1h-4.6v10.9H208.4z"/>
	<path d="M223.9,231.5v-15.2h2.3v15.2H223.9z"/>
	<path d="M237.8,227.1l-2,4.4h-2.7l7-15.2h2.6l7.1,15.2h-2.8l-2-4.4H237.8z M241.5,218.9l-2.8,6.2h5.6L241.5,218.9z"/>
	<path d="M181.1,231.5v-15.2h12.4v2.1h-10.1v4.3h10.1v2.1h-10.1v4.6h10.1v2.1H181.1z"/>
</g>
</svg>
