<svg id="Layer_1" data-name="Layer 1" xmlns="http://www.w3.org/2000/svg" viewBox="0 0 288 288"><defs><style>.cls-1{fill:none;}.cls-2{fill:#fff;}</style></defs><title>elm-logo-wht</title><rect class="cls-1" width="288" height="288"/><path class="cls-2" d="M39.2,38.67H140.09V58.84H59.37V79h80.71V99.2H59.37v20.18h80.71v20.18H39.2Z"/><path class="cls-2" d="M150.19,38.67h20.18v80.71h83.5v20.18H150.19Z"/><path class="cls-2" d="M140.09,149.55V250.44H119.91V169.73H99.73v80.71H79.55V169.73H59.37v80.71H39.2V149.55Z"/><path class="cls-2" d="M153.81,176.87V161.71h12.41v2.11H156.15v4.25h10.13v2.11H156.15v4.57h10.13v2.11Z"/><path class="cls-2" d="M177.36,172.53l-2,4.36h-2.66l7-15.16h2.64l7.09,15.16h-2.82l-2-4.36Zm3.64-8.18-2.77,6.21h5.59Z"/><path class="cls-2" d="M199.44,176.87H197.1V161.71h8.36c3.34,0,5.07,1.43,5.07,4.25a3.68,3.68,0,0,1-2.14,3.55c1.59.77,1.84,1.43,2,4.89.11,1.7.25,2,.93,2v.5H208.4a13.17,13.17,0,0,1-.39-3c-.16-2.55-.89-3.36-3-3.36h-5.61Zm5.82-8.36a3.93,3.93,0,0,0,2-.36,2.63,2.63,0,0,0,0-4.09,3.93,3.93,0,0,0-2-.36h-5.82v4.82Z"/><path class="cls-2" d="M219.38,176.87V161.71h2.34v13h9.48v2.11Z"/><path class="cls-2" d="M241.06,176.87v-6.3l-6.68-8.86h3l4.89,6.86,4.93-6.86h2.86l-6.68,8.86v6.3Z"/><path class="cls-2" d="M153.81,204.16V189h2.34v13h10.12v2.11Z"/><path class="cls-2" d="M174.66,204.16V189H177v15.16Z"/><path class="cls-2" d="M201,204.16l-.32-2.07a7.49,7.49,0,0,1-5.91,2.45c-4.8,0-8-3.18-8-7.91s3.39-8,8.39-8a8.15,8.15,0,0,1,5.77,2.07,6.2,6.2,0,0,1,1.73,3.14h-2.48a4,4,0,0,0-1.43-2.09,5.88,5.88,0,0,0-3.64-1.14,5.62,5.62,0,0,0-6,5.91,6.08,6.08,0,0,0,10.57,4.09,5.11,5.11,0,0,0,1-2.59h-5v-2.11h7.07v8.27Z"/><path class="cls-2" d="M224.77,204.16V197H215.5v7.14h-2.34V189h2.34v6h9.27v-6h2.34v15.16Z"/><path class="cls-2" d="M241.76,204.16v-13H236V189h14v2.11H244.1v13Z"/><path class="cls-2" d="M170.31,231.45V219l-6.11,12.46H162.1l-6-12.46v12.46h-2.34V216.29h3.36l6.07,12.82,6.16-12.82h3.25v15.16Z"/><path class="cls-2" d="M201.46,216.29h6.77c2.41,0,3.84.32,5.07,1.11,1.8,1.18,2.75,3.41,2.75,6.5,0,2.77-.77,4.84-2.3,6.14-1.27,1.07-2.61,1.41-5.54,1.41h-6.75Zm7,13c1.93,0,2.93-.25,3.75-1,1-.91,1.55-2.41,1.55-4.5s-.52-3.57-1.55-4.48c-.82-.73-1.82-1-3.75-1H203.8v10.93Z"/><path class="cls-2" d="M223.9,231.45V216.29h2.34v15.16Z"/><path class="cls-2" d="M237.83,227.09l-2,4.36h-2.66l7-15.16h2.64L250,231.45h-2.82l-2-4.36Zm3.64-8.18-2.77,6.21h5.59Z"/><path class="cls-2" d="M181.11,231.45V216.29h12.41v2.11H183.45v4.25h10.13v2.11H183.45v4.57h10.13v2.11Z"/></svg>