<svg id="Layer_1" data-name="Layer 1" xmlns="http://www.w3.org/2000/svg" viewBox="0 0 80.23 110"><defs><style>.cls-1{fill:#80b09c;}</style></defs><title>Build-Icon</title><path class="cls-1" d="M92.76,15l-1.59-.65h0a.31.31,0,0,0-.13,0H91c-.52.1-1,.22-1.4.33a8.21,8.21,0,0,1-5.39-.19c-.66-.2-1.28-.42-1.84-.65a8.27,8.27,0,0,1-2.56-1.46c.18-.92.2-2.77-2.33-3.6L63.76,3.16c-.52-.24-1-.44-1.46-.6-6.16-2.17-13.63-4-22.39-1C35,3.28,30.86,7,27.52,12.77A3.44,3.44,0,0,0,27,14.26a1.09,1.09,0,0,0,.46.83h0l.22.14.06,0c1.27.5,4.42-.8,4.77-.95,11.63-4.74,15.65-3.1,17.37-2.4l.31.13c2.08.86,1.56,4,1.51,4.28-1,2.49-3.3,8.25-3.18,9l0,.13a1.34,1.34,0,0,0,.38.86L35.42,56.09,15,101.12a1.38,1.38,0,0,0,.76,1.8l17.06,7a1.38,1.38,0,0,0,1.8-.77l30-76.47a2.13,2.13,0,0,0,1.84-1h0a57.11,57.11,0,0,1,3.26-4.73c2.48-3.06,3.85-4.11,5.83-4.5a5.62,5.62,0,0,1,2.8.61,16.62,16.62,0,0,1,2,1,8.81,8.81,0,0,1,4,3.71c.22.36.45.73.74,1.15l0,0,0,0,.11.08h0l1.6.65a3.8,3.8,0,0,0,4.94-2.07l3.1-7.59A3.8,3.8,0,0,0,92.76,15" transform="translate(-14.89 0)"/></svg>
