<svg id="Layer_1" data-name="Layer 1" xmlns="http://www.w3.org/2000/svg" viewBox="0 0 250.12 249.75"><defs><style>.cls-1{fill:#87b09a;}.cls-2,.cls-3{fill:none;stroke:#87b09a;stroke-linecap:round;}.cls-2{stroke-linejoin:round;stroke-width:1.75px;}.cls-3{stroke-miterlimit:10;stroke-width:2.97px;}</style></defs><title>Continuous Deployment Loop - Icons and Words</title><path class="cls-1" d="M147.69,42.77l3.19-27.11,12,1.41c4.07.48,6.46,3.51,6,7.19l-.62,5.23c-.43,3.68-3.46,6.07-7.53,5.59L151.67,34l-1.07,9.1Zm5.8-24.25L152,31.5l9.1,1.07a3.91,3.91,0,0,0,4.33-3.42l.62-5.23a3.91,3.91,0,0,0-3.42-4.33Z" transform="translate(-25.94 -15.66)"/><path class="cls-1" d="M177.74,20.23l2.62.76-6.12,21a3.08,3.08,0,0,0,2.12,3.87l.56.16-.66,2.25-.56-.16c-3.37-1-5-3.88-4.08-6.88Z" transform="translate(-25.94 -15.66)"/><path class="cls-1" d="M190.48,54.33l.79-2.64-.18-.08a5.86,5.86,0,0,1-5.73.79l-2.83-1.31c-3.37-1.55-4.33-4.57-3-7.41l.49-1.06c1.31-2.83,4.41-4,7.6-2.51l6.91,3.18,1.14-2.48a3.08,3.08,0,0,0-1.53-4.14l-7.79-3.59,1-2.12,7.79,3.59c3.19,1.47,4.33,4.57,3,7.41l-6,13.1Zm-4.14-4.06C189,51.5,191.88,49,191.88,49l1.63-3.54-6.9-3.18a3.08,3.08,0,0,0-4.14,1.53L182,44.83A3.08,3.08,0,0,0,183.5,49Z" transform="translate(-25.94 -15.66)"/><path class="cls-1" d="M207.31,65.61l8.82-11.91a3.08,3.08,0,0,0-.65-4.37l-2.82-2.09c-2.35-1.74-5.69.15-5.69.15L198.37,59l-2.19-1.63,11.84-16,1.41,1-1.31,2.43.16.12a5.86,5.86,0,0,1,5.78.4l2.82,2.09c2.82,2.09,3.31,5.36,1.45,7.87L209.5,67.24Z" transform="translate(-25.94 -15.66)"/><path class="cls-1" d="M256.35,182.63c3.37,1.55,4.71,5.17,3,8.89l-4.47,9.75-1.59-.73-.38-1,4.15-9a3.91,3.91,0,0,0-1.92-5.17l-1.06-.49a3.5,3.5,0,0,0-4.67,1.29L245,192a6,6,0,0,1-7.71,1.83l-1.6-.73c-3.37-1.54-4.71-5.16-3-8.89l4.88-10.63,2.3,1.06L235,185.27a3.91,3.91,0,0,0,1.92,5.17l1.59.73a3.5,3.5,0,0,0,4.67-1.29l4.43-5.91a6,6,0,0,1,7.71-1.83Z" transform="translate(-25.94 -15.66)"/><path class="cls-1" d="M237.85,213.95c-2.1,2.81-5.37,3.29-7.87,1.42l-7.5-5.6c-2.5-1.87-3-5.14-.88-8l4.78-6.41-5.32-4,1.63-2.19,21.26,15.85-1,1.41-2.42-1.32-.12.16a5.86,5.86,0,0,1-.41,5.77Zm.22-4.21c1.75-2.35-.13-5.7-.13-5.7l-9.69-7.23-4.78,6.41a3.08,3.08,0,0,0,.64,4.37l7.5,5.6a3.08,3.08,0,0,0,4.37-.64Z" transform="translate(-25.94 -15.66)"/><path class="cls-1" d="M219,230.05l2.69-2.54c2.13-2,1-5.49,1-5.49l-9.9-10.5,2-1.87,13.65,14.47-1.28,1.21L225,223.61l-.14.13a5.85,5.85,0,0,1-1.4,5.61l-2.7,2.54Z" transform="translate(-25.94 -15.66)"/><path class="cls-1" d="M202.41,220.29l2.18-1.64,12,15.88-2.18,1.64ZM216,238.36l2.18-1.64,2.82,3.74-2.18,1.64Z" transform="translate(-25.94 -15.66)"/><path class="cls-1" d="M186.21,230.08l7.05,13a3.08,3.08,0,0,0,4.23,1.26l3.09-1.67c2.57-1.39,2.27-5.22,2.27-5.22L196,224.79l2.4-1.3L207.86,241l-1.54.84-1.64-2.22-.17.09a5.86,5.86,0,0,1-2.8,5.06l-3.09,1.67c-3.09,1.67-6.26.73-7.74-2l-7.05-13Z" transform="translate(-25.94 -15.66)"/><path class="cls-1" d="M187.59,251.15l-3,1,.71,5.92-1.48.49L182,253l-5.37,1.77-.73-2.22,5.37-1.77-3.78-11.49a3.08,3.08,0,0,0-3.94-2l-3.52,1.16-.73-2.22,3.52-1.16c3.33-1.1,6.29.4,7.26,3.36l3.78,11.48,3-1Z" transform="translate(-25.94 -15.66)"/><path class="cls-1" d="M42,213.87,35.56,203.2c-2.12-3.5-1.2-7.25,2-9.17l12.35-7.47c3.17-1.92,6.92-1,9,2.51l6.46,10.68Zm19.68-15.32-4.95-8.18a3.91,3.91,0,0,0-5.36-1.32L39,196.53a3.91,3.91,0,0,0-1.32,5.36l4.95,8.18Z" transform="translate(-25.94 -15.66)"/><path class="cls-1" d="M52,173.76c1.15,3.52-.4,6.29-3.37,7.26l-8.9,2.92c-3,1-5.92-.52-7-3.86L31.41,176c-1.09-3.34.4-6.29,3.37-7.26l5.74-1.89,4.13,12.6,3.15-1a3.08,3.08,0,0,0,2-3.94l-2.92-8.89,2.22-.73Zm-9.59,6.43-3.28-10-3.52,1.16a3.08,3.08,0,0,0-2,3.94L35,179.36a3.08,3.08,0,0,0,3.94,2Z" transform="translate(-25.94 -15.66)"/><path class="cls-1" d="M47.23,157.63l.15,2.72-19.86,1.07-.09-1.75,2.71-.54v-.2a5.86,5.86,0,0,1-3.38-4.7l-.12-2.14a4.59,4.59,0,0,1,2.48-4.62v-.2a4.48,4.48,0,0,1-3-4.14l-.19-3.5c-.19-3.5,2-6,5.14-6.14l14.8-.8.15,2.72-14.8.8a3.08,3.08,0,0,0-2.95,3.28l.19,3.51A3.08,3.08,0,0,0,31.76,146l14.8-.8.15,2.72-14.8.8A3.08,3.08,0,0,0,29,152l.12,2.14c.16,2.92,3.75,4.29,3.75,4.29Z" transform="translate(-25.94 -15.66)"/><path class="cls-1" d="M32.4,125.74c-3.05-.65-4.86-3.42-4.13-6.85l1-4.77c.73-3.43,3.5-5.24,6.55-4.59l9.54,2c3.05.65,4.86,3.42,4.13,6.85l-1,4.77c-.77,3.62-3.5,5.24-6.55,4.59Zm10.1-.65a3.08,3.08,0,0,0,3.7-2.41l1-4.77a3.08,3.08,0,0,0-2.41-3.7l-9.54-2a3.08,3.08,0,0,0-3.7,2.4l-1,4.77a3.08,3.08,0,0,0,2.41,3.7Z" transform="translate(-25.94 -15.66)"/><path class="cls-1" d="M144.53,251.33c-2.28,0-4.58-.07-6.84-.21a1.25,1.25,0,0,1,.15-2.5A109.28,109.28,0,0,0,165,246.89a1.25,1.25,0,0,1,.47,2.46A111.08,111.08,0,0,1,144.53,251.33Z" transform="translate(-25.94 -15.66)"/><path class="cls-1" d="M249,173.26a1.23,1.23,0,0,1-.35-.05,1.25,1.25,0,0,1-.85-1.55,107.81,107.81,0,0,0,4.38-30.52,109.64,109.64,0,0,0-.62-11.62,1.25,1.25,0,0,1,2.49-.27,112.11,112.11,0,0,1,.63,11.88,110.35,110.35,0,0,1-4.49,31.23A1.25,1.25,0,0,1,249,173.26Z" transform="translate(-25.94 -15.66)"/><path class="cls-1" d="M236.79,84.42a1.25,1.25,0,0,1-1.06-.58,108.31,108.31,0,0,0-13.93-17.72,1.25,1.25,0,1,1,1.79-1.74,110.78,110.78,0,0,1,14.25,18.13,1.25,1.25,0,0,1-1.06,1.92Z" transform="translate(-25.94 -15.66)"/><path class="cls-1" d="M79.85,230.07a1.26,1.26,0,0,1-.74-.24A111,111,0,0,1,62.84,215.1a1.25,1.25,0,1,1,1.85-1.68,108.36,108.36,0,0,0,15.9,14.39,1.25,1.25,0,0,1-.74,2.26Z" transform="translate(-25.94 -15.66)"/><path class="cls-1" d="M232.62,138.11a1.25,1.25,0,0,1-1.15-1.73l9.88-23.71h-9.2a1.25,1.25,0,0,1-1.14-1.77L243.83,82.6a1.25,1.25,0,0,1,1.14-.73h29.84a1.25,1.25,0,0,1,1,2l-13,16.19h8.84a1.25,1.25,0,0,1,.84,2.17l-39,35.52A1.25,1.25,0,0,1,232.62,138.11Zm1.46-27.94h9.13a1.25,1.25,0,0,1,1.15,1.73l-8.44,20.25,32.49-29.56h-8.22a1.25,1.25,0,0,1-1-2l13-16.19H245.77Z" transform="translate(-25.94 -15.66)"/><path class="cls-1" d="M108.05,265.41a23.15,23.15,0,1,1,23.16-23.15,1.25,1.25,0,1,1-2.5,0,20.64,20.64,0,1,0-2.64,10.12,1.25,1.25,0,0,1,2.18,1.23A23.2,23.2,0,0,1,108.05,265.41Z" transform="translate(-25.94 -15.66)"/><path class="cls-1" d="M130,244.18a1.25,1.25,0,0,1-.88-.37L124,238.72a1.25,1.25,0,1,1,1.77-1.77l4.21,4.21,4.21-4.21a1.25,1.25,0,1,1,1.77,1.77l-5.09,5.09A1.25,1.25,0,0,1,130,244.18Z" transform="translate(-25.94 -15.66)"/><path class="cls-2" d="M83.09,52.12" transform="translate(-25.94 -15.66)"/><path class="cls-1" d="M123.07,54.22l-20,16.1a.88.88,0,0,1-1.23-.13L78.7,41.42a.87.87,0,0,1,.13-1.23l20-16.1a.88.88,0,0,1,1.23.13L123.2,53A.88.88,0,0,1,123.07,54.22ZM102.62,68.41l18.67-15L99.28,26,80.61,41Z" transform="translate(-25.94 -15.66)"/><path class="cls-1" d="M117,51.32,101.42,63.87a.87.87,0,0,1-1.23-.13l-17.63-22a.87.87,0,0,1,.13-1.23L98.31,28a.88.88,0,0,1,1.23.13l17.63,22A.88.88,0,0,1,117,51.32ZM101,62,115.27,50.5,98.73,29.91,84.47,41.36Z" transform="translate(-25.94 -15.66)"/><circle class="cls-1" cx="110.84" cy="59.15" r="1.05" transform="translate(-38.56 66.77) rotate(-38.77)"/><path class="cls-1" d="M92.08,61.64,55.76,90.81a.88.88,0,0,1-1.23-.13L33.08,64a.87.87,0,0,1,.13-1.23L82.73,23a.88.88,0,0,1,1.23.13l5.35,6.66a.88.88,0,1,1-1.37,1.1l-4.8-6L35,63.57,55.34,88.9,91,60.27a.88.88,0,0,1,1.1,1.36Z" transform="translate(-25.94 -15.66)"/><path class="cls-1" d="M89.92,58.76,56.42,85.66a.87.87,0,0,1-1.23-.13L38.44,64.67a.87.87,0,0,1,.13-1.23l44-35.32a.87.87,0,0,1,1.23.13l2.83,3.53a.87.87,0,0,1-1.36,1.1L83,30,40.36,64.26,56,83.75,88.82,57.4a.88.88,0,0,1,1.1,1.36Z" transform="translate(-25.94 -15.66)"/><path class="cls-1" d="M88.59,75.54l-4.45,3.58A.87.87,0,0,1,82.91,79l-5.42-6.75A.87.87,0,0,1,77.62,71l4.45-3.58a.87.87,0,0,1,1.23.13l5.42,6.75A.87.87,0,0,1,88.59,75.54Zm-4.87,1.66,3.09-2.48-4.32-5.38L79.4,71.82Z" transform="translate(-25.94 -15.66)"/><path class="cls-1" d="M91.86,72.92l-11,8.83a.87.87,0,0,1-1.1-1.36l11-8.83a.88.88,0,0,1,1.1,1.36Z" transform="translate(-25.94 -15.66)"/><path class="cls-2" d="M88.93,64" transform="translate(-25.94 -15.66)"/><path class="cls-3" d="M119.49,35a108.93,108.93,0,0,1,20.78-2.75" transform="translate(-25.94 -15.66)"/><path class="cls-3" d="M42.4,102.52q1.83-4.83,4.09-9.43" transform="translate(-25.94 -15.66)"/><path class="cls-3" d="M253.07,141.06" transform="translate(-25.94 -15.66)"/></svg>