<svg id="Layer_1" data-name="Layer 1" xmlns="http://www.w3.org/2000/svg" viewBox="0 0 105.42 132.16"><defs><style>.cls-1{fill:#87b09a;}</style></defs><title>Journey</title><path class="cls-1" d="M26.11,124.16h-2.6V10.5h86.92v2.2a2,2,0,1,0,4,0V8.5a2,2,0,0,0-2-2H21.51a2,2,0,0,0-2,2V126.16a2,2,0,0,0,2,2h4.6a2,2,0,0,0,0-4Z" transform="translate(-19.51 -6.5)"/><path class="cls-1" d="M122.93,17H32a2,2,0,0,0-2,2V136.66a2,2,0,0,0,2,2h90.92a2,2,0,0,0,2-2V19A2,2,0,0,0,122.93,17ZM34,134.66V21h86.92V121.18H85.8a8.56,8.56,0,0,0-16.66,0h-13a12.78,12.78,0,1,1,0-25.56h13a8.56,8.56,0,0,0,16.66,0h13a16.78,16.78,0,1,0,0-33.56h-13a8.57,8.57,0,1,0,0,4h13a12.78,12.78,0,1,1,0,25.56h-13a8.56,8.56,0,0,0-16.66,0h-13a16.78,16.78,0,1,0,0,33.56h13a8.56,8.56,0,0,0,16.66,0h35.13v9.48Zm48-11.48a4.57,4.57,0,1,1-4.57-4.57A4.58,4.58,0,0,1,82,123.18ZM72.9,93.62a4.57,4.57,0,1,1,4.57,4.57A4.58,4.58,0,0,1,72.9,93.62ZM82,64.05a4.57,4.57,0,1,1-4.57-4.57A4.58,4.58,0,0,1,82,64.05Z" transform="translate(-19.51 -6.5)"/><path class="cls-1" d="M94.89,38.5H60a2,2,0,0,0,0,4H94.89a2,2,0,0,0,0-4Z" transform="translate(-19.51 -6.5)"/><path class="cls-1" d="M56.13,33.46H98.81a2,2,0,0,0,0-4H56.13a2,2,0,0,0,0,4Z" transform="translate(-19.51 -6.5)"/><path class="cls-1" d="M41.49,64.88H62.76a2,2,0,1,0,0-4H41.49a2,2,0,0,0,0,4Z" transform="translate(-19.51 -6.5)"/><path class="cls-1" d="M41.49,73.95H56.76a2,2,0,0,0,0-4H41.49a2,2,0,0,0,0,4Z" transform="translate(-19.51 -6.5)"/><path class="cls-1" d="M111.43,101.84H90.15a2,2,0,0,0,0,4h21.27a2,2,0,0,0,0-4Z" transform="translate(-19.51 -6.5)"/><path class="cls-1" d="M111.43,110.9H96.16a2,2,0,0,0,0,4h15.27a2,2,0,0,0,0-4Z" transform="translate(-19.51 -6.5)"/><path class="cls-1" d="M41.49,83H62.76a2,2,0,1,0,0-4H41.49a2,2,0,0,0,0,4Z" transform="translate(-19.51 -6.5)"/></svg>