<svg id="Layer_1" data-name="Layer 1" xmlns="http://www.w3.org/2000/svg" viewBox="0 0 109.08 98.73"><defs><style>.cls-1{fill:#80b09c;}.cls-2{fill:#fff;}</style></defs><title>Maintain-Icon</title><path class="cls-1" d="M57.09,12l-20-5.52a8.72,8.72,0,0,0-10.73,6.08s-.43,3.9-2.61,4.07,3.05,9,7.69,10.27l20,5.52c4.64,1.29,13.29-3.94,11.94-5.15s-.22-4.54-.22-4.54A8.72,8.72,0,0,0,57.09,12m.48,11.25c-.93,3.36-2.47-1.64-5.84-2.57l-14.45-4c-3.37-.93-7.26,2.57-6.33-.8l.22-.82a6.31,6.31,0,0,1,7.77-4.4l14.46,4a6.31,6.31,0,0,1,4.4,7.77Z" transform="translate(-0.46 -5.51)"/><path class="cls-2" d="M57.09,12l.18-.63-20-5.53a9.53,9.53,0,0,0-2.51-.34,9.39,9.39,0,0,0-9,6.88l0,.11h0a8.29,8.29,0,0,1-.48,1.89,4,4,0,0,1-.66,1.13,1.48,1.48,0,0,1-.41.32,1,1,0,0,1-.45.14,1.39,1.39,0,0,0-.48.14,1.2,1.2,0,0,0-.52.55,1.74,1.74,0,0,0-.12.66,4,4,0,0,0,.22,1.18A12.72,12.72,0,0,0,24.06,21a20.64,20.64,0,0,0,3.17,4,10.11,10.11,0,0,0,4.08,2.6l20,5.52a6.68,6.68,0,0,0,1.8.23,12.68,12.68,0,0,0,3.68-.62,20.2,20.2,0,0,0,5-2.31,9.35,9.35,0,0,0,1.67-1.32,4,4,0,0,0,.54-.66,1.57,1.57,0,0,0,.24-.8,1.15,1.15,0,0,0-.09-.44,1,1,0,0,0-.27-.36,1.16,1.16,0,0,1-.32-.57,3.11,3.11,0,0,1-.12-.9,7.31,7.31,0,0,1,.21-1.62c0-.23.1-.42.14-.55a.86.86,0,0,1,0-.15v0h0v0a9.5,9.5,0,0,0,.35-2.51,9.37,9.37,0,0,0-6.89-9l-.18.63-.17.65a8,8,0,0,1,5.61,9.9l.64.18-.63-.21s-.12.36-.24.87a8.66,8.66,0,0,0-.24,1.92,4.69,4.69,0,0,0,.17,1.28,2.51,2.51,0,0,0,.71,1.17l.16-.18-.21.1,0,.08.16-.18-.21.1.21-.1h-.24l0,.1.21-.1h-.24a1.11,1.11,0,0,1-.24.36,7.3,7.3,0,0,1-1.5,1.24,19,19,0,0,1-3.83,1.92,13,13,0,0,1-4.22.87,5.43,5.43,0,0,1-1.45-.18L31.67,26.27A7.68,7.68,0,0,1,29,24.75a18.28,18.28,0,0,1-3.57-4.1,14.11,14.11,0,0,1-1.09-2,5.08,5.08,0,0,1-.28-.79,1.86,1.86,0,0,1-.09-.53.8.8,0,0,1,0-.11h0l-.1,0,.09.06v0l-.1,0,.09.06-.17-.12.1.19.07-.07-.17-.12.1.19-.07-.14,0,.14h0l-.07-.14,0,.14h0a2.35,2.35,0,0,0,1-.31,3.26,3.26,0,0,0,1.19-1.2,7.34,7.34,0,0,0,.82-2.08,8,8,0,0,0,.2-1.08l-.66-.07.64.18a8.06,8.06,0,0,1,7.76-5.91A8.43,8.43,0,0,1,37,7.13l20,5.53.17-.65m.48,11.25-.64-.18a2.12,2.12,0,0,1-.27.67l0,0,.12.14v-.18a.24.24,0,0,0-.12,0l.12.14v0l0-.14h0v.14l0-.14v0h0v0a.81.81,0,0,1-.16-.1,6,6,0,0,1-.73-.69c-.45-.46-1-1.06-1.64-1.61A6.44,6.44,0,0,0,51.91,20l-14.45-4A5.28,5.28,0,0,0,36,15.86a11.07,11.07,0,0,0-2.78.45l-1.07.3a3.83,3.83,0,0,1-.69.11h-.09l0,.13.07-.1,0,0,0,.13.07-.1-.11.15.18-.07-.07-.08-.11.15.18-.07h0v-.1a2.44,2.44,0,0,1,.12-.64h0l.23-.82a5.65,5.65,0,0,1,5.44-4.15,5.72,5.72,0,0,1,1.51.21l14.45,4a5.67,5.67,0,0,1,3.94,7l-.23.82,1.28.36.23-.82a6.75,6.75,0,0,0,.26-1.87A7,7,0,0,0,53.57,14L39.12,10a6.68,6.68,0,0,0-1.86-.26,7,7,0,0,0-6.72,5.12l-.24.83a4,4,0,0,0-.16,1,1.63,1.63,0,0,0,.08.53,1.14,1.14,0,0,0,.21.37,1.09,1.09,0,0,0,.51.35,1.38,1.38,0,0,0,.52.08,4.57,4.57,0,0,0,1-.15c.52-.13,1.09-.31,1.69-.45A7.85,7.85,0,0,1,36,17.19a4,4,0,0,1,1.1.14l14.46,4a4.61,4.61,0,0,1,1.49.77,15.15,15.15,0,0,1,1.87,1.78c.28.28.54.55.81.77a2.86,2.86,0,0,0,.45.28,1.34,1.34,0,0,0,.58.14,1.18,1.18,0,0,0,.57-.15,1.53,1.53,0,0,0,.55-.61,3.67,3.67,0,0,0,.33-.87Z" transform="translate(-0.46 -5.51)"/><path class="cls-1" d="M64.46,99a6.28,6.28,0,0,1-7.72,4.38l-51-14.11a6.28,6.28,0,0,1-4.37-7.73L18,21.24a6.26,6.26,0,0,1,7.72-4.37L58,26.06l3.32-11.19S82.06,35.36,81.13,38.7L64.46,99" transform="translate(-0.46 -5.51)"/><path class="cls-2" d="M64.46,99l-.64-.18a5.63,5.63,0,0,1-5.41,4.12,5.22,5.22,0,0,1-1.5-.21l-51-14.11a5.6,5.6,0,0,1-4.12-5.4A5.54,5.54,0,0,1,2,81.69L18.67,21.42a5.61,5.61,0,0,1,5.4-4.12,5.54,5.54,0,0,1,1.5.21h0l32.26,9.2a.67.67,0,0,0,.83-.45L62,15.06l-.64-.19-.47.47s.08.07.22.22c1.09,1.08,6,6,10.6,11.07,2.31,2.55,4.54,5.14,6.19,7.31a28.67,28.67,0,0,1,2,2.86,10.76,10.76,0,0,1,.51,1.05,2,2,0,0,1,.15.61v.07h0L63.82,98.79l1.28.36L81.77,38.88h0a2,2,0,0,0,0-.42,3.2,3.2,0,0,0-.27-1.17A14.73,14.73,0,0,0,80,34.63a71,71,0,0,0-4.9-6.14c-5.8-6.67-13.3-14.09-13.31-14.1a.67.67,0,0,0-1.11.29L57.57,25.24l-31.64-9h0A6.63,6.63,0,0,0,24.07,16a6.94,6.94,0,0,0-6.68,5.09L.72,81.33a6.63,6.63,0,0,0-.26,1.86,7,7,0,0,0,5.09,6.69l51,14.11a6.95,6.95,0,0,0,8.54-4.84L64.46,99" transform="translate(-0.46 -5.51)"/><path class="cls-1" d="M51.35,82.29,21.17,73.94l10-36,30.18,8.35-10,36M22.07,73.43l28.77,8,9.58-34.61-28.77-8Z" transform="translate(-0.46 -5.51)"/><path class="cls-2" d="M51.35,82.29l.18-.64L22,73.48,31.6,38.74l28.9,8L50.71,82.11l.64.18.18-.64-.18.64.64.18,10-36a.68.68,0,0,0-.07-.5.63.63,0,0,0-.4-.31L31.32,37.28a.66.66,0,0,0-.82.46l-10,36a.65.65,0,0,0,.47.81l30.17,8.35a.65.65,0,0,0,.51-.06.62.62,0,0,0,.31-.4l-.64-.18M22.07,73.43l-.17.64,28.76,8a.65.65,0,0,0,.51-.06.62.62,0,0,0,.31-.4L61.06,47a.73.73,0,0,0-.06-.5.67.67,0,0,0-.41-.31l-28.76-8a.66.66,0,0,0-.82.46L21.43,73.26a.65.65,0,0,0,.47.81l.17-.64.64.18,9.4-34,27.49,7.6L50.38,80.57,22.25,72.79l-.18.64.64.18Z" transform="translate(-0.46 -5.51)"/><path class="cls-1" d="M60.77,46.87a.36.36,0,0,1-.22-.16.36.36,0,0,1,.14-.5l9-5.12a.37.37,0,0,1,.5.13.36.36,0,0,1-.14.5l-9,5.12a.35.35,0,0,1-.28,0" transform="translate(-0.46 -5.51)"/><path class="cls-2" d="M60.77,46.87l.17-.64-.08.3.27-.15a.29.29,0,0,0-.19-.15l-.08.3.27-.15h0l-.26.15h.3a.42.42,0,0,0,0-.15l-.26.15h0l.15.27a.32.32,0,0,0,.16-.27h-.31l.15.27,9-5.13h0l-.14-.26v.3a.23.23,0,0,0,.14,0l-.14-.26v0l-.26.15a.29.29,0,0,0,.26.15v-.3l-.26.15h0l.26-.14h-.3a.23.23,0,0,0,0,.14l.26-.14h0l-.15-.27a.31.31,0,0,0-.15.27h.3l-.15-.27h0l-9,5.12h0l.15.27v-.31a.48.48,0,0,0-.15,0l.15.27v0l.08-.28h-.08v.29l.08-.28h0l-.17.64-.17.65a1.09,1.09,0,0,0,.26,0,1.06,1.06,0,0,0,.52-.13h0l9-5.12a1,1,0,0,0,.52-.89,1.06,1.06,0,0,0-.13-.52h0a1,1,0,0,0-.9-.53,1.06,1.06,0,0,0-.51.14l-9,5.12A1,1,0,0,0,60,47l.58-.32L60,47a1,1,0,0,0,.63.49l.17-.65" transform="translate(-0.46 -5.51)"/><path class="cls-1" d="M31.29,38.72a.3.3,0,0,1-.21-.17l-5.12-9a.36.36,0,1,1,.63-.35l5.12,9a.37.37,0,0,1-.14.5.34.34,0,0,1-.28,0" transform="translate(-0.46 -5.51)"/><path class="cls-2" d="M31.29,38.72l.18-.64-.08.29.27-.15a.33.33,0,0,0-.19-.14l-.08.29.27-.15h0l-5.12-9-.26.15h.3a.26.26,0,0,0,0-.15l-.26.15h0l.14.25a.27.27,0,0,0,.15-.25h-.29l.14.25h0l-.15-.27v.3a.37.37,0,0,0,.15,0l-.15-.27v0l-.26.14a.28.28,0,0,0,.26.15v-.29l-.26.14,5.12,9h0l.26-.15h-.3a.42.42,0,0,0,0,.15l.26-.15h0l-.15-.26a.31.31,0,0,0-.15.26h.3l-.15-.26h0l.16.26v-.3a.42.42,0,0,0-.16,0l.16.26v0l.07-.28H31.4v.29l.07-.28-.18.64-.17.64a.82.82,0,0,0,.28,0,1,1,0,0,0,.51-.14,1,1,0,0,0,.51-.89,1,1,0,0,0-.13-.51h0l-5.12-9h0a1,1,0,0,0-1.4-.39h0a1,1,0,0,0-.52.9,1.05,1.05,0,0,0,.14.5l5.12,9h0a1,1,0,0,0,.62.48l.17-.64" transform="translate(-0.46 -5.51)"/><path class="cls-1" d="M56.12,91.23a.41.41,0,0,1-.22-.17l-5.12-9a.35.35,0,0,1,.14-.49.36.36,0,0,1,.49.13l5.12,9a.37.37,0,0,1-.14.5.36.36,0,0,1-.27,0" transform="translate(-0.46 -5.51)"/><path class="cls-2" d="M56.12,91.23l.18-.64-.08.28.25-.15a.31.31,0,0,0-.17-.13l-.08.28.25-.15-.57.34.57-.33-5.11-9h0l-.27.15h.31a.42.42,0,0,0,0-.15l-.27.15h0l.15.27a.32.32,0,0,0,.16-.27h-.31l.15.27h0l-.16-.26v.3a.26.26,0,0,0,.15,0l-.16-.26v0l-.26.15a.3.3,0,0,0,.26.15v-.3l-.26.15h0L56,91h0l.27-.14h-.3A.39.39,0,0,0,56,91l.27-.14h0l-.15-.26a.29.29,0,0,0-.14.26h.29l-.15-.26.33.58-.32-.59.14.26v-.29a.32.32,0,0,0-.14,0l.14.26v0l.07-.28h-.07v.28l.07-.28-.16.65.18-.64-.18.64-.17.65a2.06,2.06,0,0,0,.26,0,1.06,1.06,0,0,0,.5-.13h0a1,1,0,0,0,.39-1.4l-5.12-9h0A1,1,0,0,0,50.58,81l.34.58-.33-.59a1,1,0,0,0-.52.9,1,1,0,0,0,.13.51h0l5.12,9h0a1,1,0,0,0,.62.48h0l.17-.65" transform="translate(-0.46 -5.51)"/><path class="cls-1" d="M12.49,79.16a.37.37,0,0,1-.09-.67l9-5.12a.37.37,0,1,1,.36.64l-9,5.11a.4.4,0,0,1-.28,0" transform="translate(-0.46 -5.51)"/><path class="cls-2" d="M12.49,79.16l.19-.64-.08.28.25-.15a.36.36,0,0,0-.17-.13l-.08.28.25-.15-.58.34.58-.33-.26.15h.3a.28.28,0,0,0,0-.15l-.26.15h0l.15.26a.3.3,0,0,0,.15-.26h-.3l.15.26h0l9-5.12-.15-.26V74a.26.26,0,0,0,.15,0l-.15-.26v0l-.26.14a.3.3,0,0,0,.26.16v-.3l-.26.14h0l.27-.15h-.31a.28.28,0,0,0,0,.15l.27-.15h0l-.14-.26a.29.29,0,0,0-.16.26h.3l-.14-.26-9,5.12h0l.14.26v-.29a.4.4,0,0,0-.15,0l.14.26v0l.07-.28h-.07v.29l.07-.28-.17.64.19-.64-.19.64-.17.64a.77.77,0,0,0,.27,0,1,1,0,0,0,.5-.14l9-5.12h0a1,1,0,0,0,.39-1.41l-.58.33.58-.32a1,1,0,0,0-.9-.53,1,1,0,0,0-.5.13l-9,5.12h0a1,1,0,0,0-.52.9,1,1,0,0,0,.13.5h0a1,1,0,0,0,.61.48h0l.17-.64" transform="translate(-0.46 -5.51)"/><path class="cls-1" d="M80.56,18.27c-1.07.43-1.81,1.09-1.65,1.48l1.24,3.14c.16.39,1.14.37,2.22-.05l10.88-4.27c1.07-.42,1.81-1.08,1.65-1.48L93.66,14c-.15-.4-1.15-.38-2.21,0L80.56,18.27" transform="translate(-0.46 -5.51)"/><path class="cls-2" d="M80.56,18.27l-.24-.62a5.32,5.32,0,0,0-1.38.79,2.41,2.41,0,0,0-.47.49,1.26,1.26,0,0,0-.25.71,1.21,1.21,0,0,0,.07.36h0l1.24,3.14a.93.93,0,0,0,.28.39,1.19,1.19,0,0,0,.52.25,1.88,1.88,0,0,0,.53.06,4.86,4.86,0,0,0,1.75-.38h0l10.88-4.26h0a5.48,5.48,0,0,0,1.38-.78,2.47,2.47,0,0,0,.47-.5,1.18,1.18,0,0,0,.24-.7.88.88,0,0,0-.06-.36h0l-1.24-3.14h0a.87.87,0,0,0-.28-.39,1.07,1.07,0,0,0-.52-.26A1.92,1.92,0,0,0,93,13a4.77,4.77,0,0,0-1.75.38L80.32,17.65h0l.24.62.25.62,10.88-4.27h0A3.86,3.86,0,0,1,93,14.34a1.45,1.45,0,0,1,.23,0l.08-.18-.13.14.05,0,.08-.18-.13.14.24-.25L93,14.2a.29.29,0,0,0,.09.12l.24-.25L93,14.2l1.24,3.13.33-.12h-.36a.3.3,0,0,0,0,.12l.33-.12h-.13l-.21-.09a.3.3,0,0,0,0,.09h.23l-.21-.09,0,0,0,0,0,0,0,0a.36.36,0,0,1-.09.12A3.4,3.4,0,0,1,93,18L82.12,22.22a3.62,3.62,0,0,1-1.26.28.75.75,0,0,1-.23,0l-.09.18.14-.14-.05,0-.09.18.14-.14-.25.25.34-.13a.29.29,0,0,0-.09-.12l-.25.25.34-.13L79.53,19.5h0l-.34.14h.36a.24.24,0,0,0,0-.14l-.34.14h.14l.21.08a.38.38,0,0,0,0-.08h-.22l.21.08h0a1,1,0,0,1,.09-.12,3.4,3.4,0,0,1,1.18-.71l-.25-.62" transform="translate(-0.46 -5.51)"/><path class="cls-1" d="M93.41,13.74l13.64,3.6c1.11.29,1.93.86,1.82,1.28L108,21.87c-.12.41-1.11.51-2.22.22L93,18.68l.45-4.94" transform="translate(-0.46 -5.51)"/><path class="cls-2" d="M93.41,13.74l-.17.64L106.88,18a3.77,3.77,0,0,1,1.11.47,1.06,1.06,0,0,1,.23.19l0,0,.21-.12h-.24a.21.21,0,0,0,0,.12l.21-.12h.12l-.35-.09v.09h.36l-.35-.09h0l-.86,3.26h0l.32.08-.22-.25a.33.33,0,0,0-.1.17l.32.08-.22-.25.09.11-.07-.12h0l.09.11-.07-.12h0a1.29,1.29,0,0,1-.47.07,4.4,4.4,0,0,1-1-.15h0L93.68,18.18l.39-4.38-.66-.06-.17.64.17-.64-.66-.06-.45,4.94a.68.68,0,0,0,.49.71l12.83,3.4a5.92,5.92,0,0,0,1.38.19,2.67,2.67,0,0,0,.91-.14,1.2,1.2,0,0,0,.42-.24.92.92,0,0,0,.31-.49h0l.86-3.25h0a1,1,0,0,0,0-.24,1,1,0,0,0-.09-.42,1.55,1.55,0,0,0-.38-.51,3.09,3.09,0,0,0-.8-.53,5.87,5.87,0,0,0-1-.38L93.58,13.1a.67.67,0,0,0-.55.09.67.67,0,0,0-.28.49l.66.06" transform="translate(-0.46 -5.51)"/><polyline class="cls-1" points="80.14 30.6 87.1 16.5 81.4 10.25 62.26 10.34 80.14 30.6"/><path class="cls-2" d="M80.6,36.12l.59.29,7-14.1a.67.67,0,0,0-.11-.74l-5.7-6.25a.64.64,0,0,0-.49-.22l-19.14.09a.67.67,0,0,0-.61.39.66.66,0,0,0,.11.71L80.1,36.56a.65.65,0,0,0,.58.21.65.65,0,0,0,.51-.36l-.59-.29.49-.45L64.19,16.51l17.38-.08,5.19,5.69L80,35.82l.6.3.49-.45-.49.45" transform="translate(-0.46 -5.51)"/><polyline class="cls-1" points="80.21 31.44 82.85 26.09 67.41 9.49 61.48 9.95 80.21 31.44"/><path class="cls-2" d="M80.67,37l.59.29,2.65-5.34a.67.67,0,0,0-.11-.75L68.36,14.55a.65.65,0,0,0-.54-.22l-5.94.47a.67.67,0,0,0-.56.41.65.65,0,0,0,.12.69L80.17,37.38a.65.65,0,0,0,1.09-.14L80.67,37l.5-.44L63.31,16l4.29-.33,14.91,16-2.44,4.93.6.3.5-.44-.5.44" transform="translate(-0.46 -5.51)"/></svg>
