<svg id="Layer_1" data-name="Layer 1" xmlns="http://www.w3.org/2000/svg" viewBox="0 0 484.39 458.8"><defs><style>.cls-1{fill:#264c59;}.cls-2{fill:none;stroke:#87b09a;stroke-linecap:round;stroke-linejoin:round;stroke-width:3px;}.cls-3{fill:#87b09a;}</style></defs><title>project-lenses</title><path class="cls-1" d="M173.25,230.38v14.76c0,3.24-2.34,5.58-5.94,5.58h-7.92c-3.6,0-5.94-2.34-5.94-5.58V230.38c0-3.24,2.34-5.58,5.94-5.58h7.92C170.91,224.8,173.25,227.14,173.25,230.38Zm-15.12.72v13.32a2.43,2.43,0,0,0,2.52,2.34H166a2.43,2.43,0,0,0,2.52-2.34V231.1a2.42,2.42,0,0,0-2.52-2.34h-5.4A2.43,2.43,0,0,0,158.13,231.1Z" transform="translate(-2.32 -3.82)"/><path class="cls-1" d="M193.77,232v18.36h-3.06l-.54-2.16h-.36a5.2,5.2,0,0,1-4.14,2.52h-3.24a4.93,4.93,0,0,1-5.22-4.86V232h4.5v13.14a1.76,1.76,0,0,0,2,1.8h2.7a3.45,3.45,0,0,0,2.88-2V232Z" transform="translate(-2.32 -3.82)"/><path class="cls-1" d="M209.61,235.6h-4.14a3.41,3.41,0,0,0-2.88,1.8v13h-4.5V232h3.06l.54,2.16H202a5.2,5.2,0,0,1,4.14-2.52h3.42Z" transform="translate(-2.32 -3.82)"/><path class="cls-1" d="M233.37,242.43h-7.92v7.92h-4.68v-25.2h12.6c3.6,0,5.94,2.34,5.94,5.58v6.12C239.31,240.09,237,242.43,233.37,242.43Zm-7.92-4h6.66a2.43,2.43,0,0,0,2.52-2.34v-4.68a2.43,2.43,0,0,0-2.52-2.34h-6.66Z" transform="translate(-2.32 -3.82)"/><path class="cls-1" d="M254.43,235.6h-4.14a3.41,3.41,0,0,0-2.88,1.8v13h-4.5V232H246l.54,2.16h.36a5.2,5.2,0,0,1,4.14-2.52h3.42Z" transform="translate(-2.32 -3.82)"/><path class="cls-1" d="M261.63,231.64h6.12A4.93,4.93,0,0,1,273,236.5v9.36a4.93,4.93,0,0,1-5.22,4.86h-6.12a4.93,4.93,0,0,1-5.22-4.86V236.5A4.93,4.93,0,0,1,261.63,231.64Zm6.84,5.58a1.76,1.76,0,0,0-2-1.8h-3.6a1.75,1.75,0,0,0-2,1.8v7.92a1.76,1.76,0,0,0,2,1.8h3.6a1.76,1.76,0,0,0,2-1.8Z" transform="translate(-2.32 -3.82)"/><path class="cls-1" d="M282,232v19.62a4.93,4.93,0,0,1-5.22,4.86h-3.24v-3.78h2a1.76,1.76,0,0,0,2-1.8V232Zm0-2.34h-4.5v-5H282Z" transform="translate(-2.32 -3.82)"/><path class="cls-1" d="M301.95,243h-11.7v1.8a1.76,1.76,0,0,0,2,1.8h9v3.78H291a4.93,4.93,0,0,1-5.22-4.86v-9a4.93,4.93,0,0,1,5.22-4.86h5.76a4.93,4.93,0,0,1,5.22,4.86Zm-11.7-3.78h7.2v-2a1.75,1.75,0,0,0-2-1.8h-3.24a1.75,1.75,0,0,0-2,1.8Z" transform="translate(-2.32 -3.82)"/><path class="cls-1" d="M309.69,244.77a1.76,1.76,0,0,0,2,1.8h8.28v3.78h-9.54a4.93,4.93,0,0,1-5.22-4.86v-8.64a4.93,4.93,0,0,1,5.22-4.86h9.54v2.7l-1.08,1.08h-7.2a1.75,1.75,0,0,0-2,1.8Z" transform="translate(-2.32 -3.82)"/><path class="cls-1" d="M321.39,232h2.7l1.8-5.22h2.7V232h4.5v3.78h-4.5v9a1.76,1.76,0,0,0,2,1.8h3.6v3.78h-4.86a4.93,4.93,0,0,1-5.22-4.86v-9.72h-2.7Z" transform="translate(-2.32 -3.82)"/><path class="cls-1" d="M193.23,268.36v21.24h12.24v4H188.55v-25.2Z" transform="translate(-2.32 -3.82)"/><path class="cls-1" d="M223.65,286.17h-11.7V288a1.75,1.75,0,0,0,2,1.8h9v3.78H212.67a4.93,4.93,0,0,1-5.22-4.86v-9a4.93,4.93,0,0,1,5.22-4.86h5.76a4.93,4.93,0,0,1,5.22,4.86Zm-11.7-3.78h7.2v-2a1.75,1.75,0,0,0-2-1.8h-3.24a1.75,1.75,0,0,0-2,1.8Z" transform="translate(-2.32 -3.82)"/><path class="cls-1" d="M227.43,293.55V275.2h3.06l.54,2.16h.36a5.2,5.2,0,0,1,4.14-2.52h3.24A4.93,4.93,0,0,1,244,279.7v13.86h-4.5V280.42a1.75,1.75,0,0,0-2-1.8h-2.7a3.45,3.45,0,0,0-2.88,2v13Z" transform="translate(-2.32 -3.82)"/><path class="cls-1" d="M256.59,286.53l-5-.9a5,5,0,0,1-4.14-4.86v-.72a4.93,4.93,0,0,1,5.22-4.86h9.18v2.7L260.73,279h-7a1.65,1.65,0,0,0-1.8,1.44c0,1,.36,1.62,1.44,1.8l5.22.9a4.68,4.68,0,0,1,4,4.68v.9a4.93,4.93,0,0,1-5.22,4.86H247.23v-3.78h9.18a1.43,1.43,0,0,0,1.62-1.62A1.55,1.55,0,0,0,256.59,286.53Z" transform="translate(-2.32 -3.82)"/><path class="cls-1" d="M281.42,286.17h-11.7V288a1.75,1.75,0,0,0,2,1.8h9v3.78H270.45a4.93,4.93,0,0,1-5.22-4.86v-9a4.93,4.93,0,0,1,5.22-4.86h5.76a4.93,4.93,0,0,1,5.22,4.86Zm-11.7-3.78h7.2v-2a1.76,1.76,0,0,0-2-1.8h-3.24a1.75,1.75,0,0,0-2,1.8Z" transform="translate(-2.32 -3.82)"/><path class="cls-1" d="M293.49,286.53l-5-.9a5,5,0,0,1-4.14-4.86v-.72a4.93,4.93,0,0,1,5.22-4.86h9.18v2.7L297.62,279h-7a1.65,1.65,0,0,0-1.8,1.44c0,1,.36,1.62,1.44,1.8l5.22.9a4.68,4.68,0,0,1,4,4.68v.9a4.93,4.93,0,0,1-5.22,4.86H284.13v-3.78h9.18a1.43,1.43,0,0,0,1.62-1.62A1.55,1.55,0,0,0,293.49,286.53Z" transform="translate(-2.32 -3.82)"/><path class="cls-2" d="M421.48,157.12A172.48,172.48,0,0,1,475.87,283q0,6.77-.51,13.41" transform="translate(-2.32 -3.82)"/><path class="cls-2" d="M131,302.15A174.9,174.9,0,0,1,130,283,173,173,0,0,1,396.39,137.5" transform="translate(-2.32 -3.82)"/><path class="cls-2" d="M368.78,443a173.15,173.15,0,0,1-226.59-96" transform="translate(-2.32 -3.82)"/><path class="cls-2" d="M231.73,448.72A174.33,174.33,0,0,1,149.45,453" transform="translate(-2.32 -3.82)"/><path class="cls-2" d="M261.14,129.26a173,173,0,0,1-4.2,309.66" transform="translate(-2.32 -3.82)"/><path class="cls-2" d="M9.66,298.73Q9,291,9,283A173.11,173.11,0,0,1,222.18,114.8" transform="translate(-2.32 -3.82)"/><path class="cls-2" d="M78.54,132.14A173.5,173.5,0,0,1,159.47,37q5.67-3.08,11.6-5.75" transform="translate(-2.32 -3.82)"/><path class="cls-2" d="M338.58,332.49A173,173,0,0,1,69,189a174.43,174.43,0,0,1,1.84-25.32" transform="translate(-2.32 -3.82)"/><path class="cls-2" d="M315.31,32.39a173,173,0,0,1,50.12,277.72" transform="translate(-2.32 -3.82)"/><path class="cls-3" d="M175.34,19.21c-1.12-3.29.48-6.54,4.12-7.78L189,8.19l.53,1.56-.46.93-8.83,3a3.67,3.67,0,0,0-2.29,4.64l.35,1a3.28,3.28,0,0,0,3.89,2.35l6.88-.79A5.64,5.64,0,0,1,195.28,25l.53,1.56c1.12,3.29-.48,6.54-4.12,7.78L181.3,37.87l-.77-2.25,10.39-3.54a3.67,3.67,0,0,0,2.29-4.64l-.53-1.56a3.28,3.28,0,0,0-3.89-2.35l-6.88.8a5.65,5.65,0,0,1-6.22-4.07Z" transform="translate(-2.32 -3.82)"/><path class="cls-3" d="M206.4,30.31c-3.4.71-5.82-1-6.43-3.89l-1.81-8.6c-.6-2.87,1.1-5.47,4.32-6.14l3.94-.83c3.22-.68,5.82,1,6.43,3.89L214,20.3l-12.18,2.56.64,3A2.89,2.89,0,0,0,206,28.16l8.6-1.81.45,2.15Zm-5-9.61,9.67-2-.71-3.4A2.89,2.89,0,0,0,206.88,13l-3.94.83a2.89,2.89,0,0,0-2.26,3.47Z" transform="translate(-2.32 -3.82)"/><path class="cls-3" d="M223.89,10.87a2.89,2.89,0,0,0-2.63,3.19l.8,8.38a2.89,2.89,0,0,0,3.19,2.64l8.38-.8.21,2.18-8.38.8c-3.46.33-5.67-1.66-6-4.58l-.8-8.38c-.28-2.91,1.7-5.31,5-5.62l8.38-.8.14,1.46-.66.8Z" transform="translate(-2.32 -3.82)"/><path class="cls-3" d="M240,7.72l-.27,13.91a2.89,2.89,0,0,0,2.87,3l3.29.06c2.74.05,4.27-3.21,4.27-3.21l.26-13.54L253,8l-.36,18.66-1.65,0L250.65,24h-.18a5.5,5.5,0,0,1-4.63,2.84l-3.29-.06c-3.29-.06-5.45-2.3-5.39-5.23l.26-13.9Z" transform="translate(-2.32 -3.82)"/><path class="cls-3" d="M269.87,11.87l-3.45-.42c-2.72-.33-4.55,2.58-4.55,2.58l-1.62,13.44-2.54-.31,2.23-18.53,1.64.2.06,2.59.18,0a5.5,5.5,0,0,1,4.89-2.36l3.45.42Z" transform="translate(-2.32 -3.82)"/><path class="cls-3" d="M273.19,29.47,270.67,29l3.42-18.35,2.52.47Zm3.89-20.86-2.52-.47.81-4.32,2.52.47Z" transform="translate(-2.32 -3.82)"/><path class="cls-3" d="M281,11.92l2.84.73,2.42-5,1.42.36-1.36,5.32,5.14,1.31-.54,2.13-5.14-1.31-2.81,11A2.89,2.89,0,0,0,285,30l3.37.86-.54,2.13-3.37-.86c-3.19-.81-4.78-3.49-4.05-6.32l2.81-11L280.42,14Z" transform="translate(-2.32 -3.82)"/><path class="cls-3" d="M297.66,36.27c-3,3.59-5.35,4.7-8.46,3.61l-.86-.31.73-2.07.86.3c1.72.61,3.36-.17,5.14-2.45l-.69-18.88.37-1,2.41.86.1,16.73.17.06L307.68,20l2.42.85-.37,1Z" transform="translate(-2.32 -3.82)"/><path class="cls-3" d="M383.36,446.44,371,424l9.94-5.47c3.37-1.85,6.85-.84,8.52,2.2l1.68,3a5.86,5.86,0,0,1-1.51,7.51l9.38,5.28.53,1-2.41,1.32-9.82-6.08-6.41,3.53,4.85,8.82Zm-8.79-21.68,5.2,9.46,7.54-4.14a3.67,3.67,0,0,0,1.44-5l-1.67-3a3.67,3.67,0,0,0-5-1.44Z" transform="translate(-2.32 -3.82)"/><path class="cls-3" d="M409.67,430.38c-2.79,2.07-5.71,1.51-7.46-.84L397,422.48c-1.74-2.35-1.29-5.42,1.35-7.38l3.23-2.4c2.65-2,5.72-1.51,7.46.84l3.38,4.55-10,7.41,1.85,2.5a2.89,2.89,0,0,0,4.1.61l7.05-5.23,1.31,1.76Zm-8.57-6.63,7.93-5.89L407,415.07a2.89,2.89,0,0,0-4.1-.61l-3.23,2.4A2.89,2.89,0,0,0,399,421Z" transform="translate(-2.32 -3.82)"/><path class="cls-3" d="M418.09,409.37l4.62-2.83c2.25-1.35,4.32-1.28,6.19.72s1.9,5.24-.51,7.49l-6.54,6.13-1.5-1.6,6.55-6.13A2.89,2.89,0,0,0,427,409c-1-1.07-2.06-1.13-3.49-.25l-4.62,2.83c-2.22,1.38-4.31,1.28-6.19-.72-2-2.16-1.9-5.24.51-7.49l6-5.63,1,1.07,0,1L414.74,405a2.89,2.89,0,0,0-.14,4.14C415.6,410.2,416.66,410.26,418.09,409.37Z" transform="translate(-2.32 -3.82)"/><path class="cls-3" d="M422.27,390.63l-1.73,1.89-3.24-3,1.73-1.89ZM437.93,405l-1.73,1.89-13.77-12.6,1.73-1.89Z" transform="translate(-2.32 -3.82)"/><path class="cls-3" d="M422.63,383.55l1.61-2,15.93,12.89a2.89,2.89,0,0,0,4.12-.43l.35-.43,1.71,1.38-.35.43c-2.07,2.56-5.16,2.88-7.44,1Z" transform="translate(-2.32 -3.82)"/><path class="cls-3" d="M433.44,376.78l-1.51,2.07-3.54-2.59,1.51-2.07Zm17.12,12.54L449,391.39l-15.06-11,1.51-2.07Z" transform="translate(-2.32 -3.82)"/><path class="cls-3" d="M471.11,352.68,458.42,347a2.89,2.89,0,0,0-3.87,1.47l-1.35,3c-1.12,2.5,1.28,5.19,1.28,5.19l12.35,5.54-1,2.34-17-7.64.67-1.5,2.49.71.07-.17a5.5,5.5,0,0,1-.8-5.37l1.35-3c1.35-3,4.25-4.11,6.92-2.91l12.69,5.69Z" transform="translate(-2.32 -3.82)"/><path class="cls-3" d="M460.71,333a2.89,2.89,0,0,0,1.92,3.67l8,2.5a2.89,2.89,0,0,0,3.67-1.92l2.5-8,2.1.65-2.5,8c-1,3.32-3.73,4.59-6.52,3.72l-8-2.5c-2.8-.87-4.24-3.62-3.26-6.77l2.5-8,1.4.44.48.92Z" transform="translate(-2.32 -3.82)"/><path class="cls-3" d="M481.76,316.6c4,2.46,5.44,4.61,4.8,7.84l-.18.9-2.16-.42.18-.9c.35-1.8-.66-3.3-3.18-4.72l-18.58,3.45-1.08-.21.49-2.51,16.53-2.54,0-.18-14.42-8.23.49-2.51,1.08.21Z" transform="translate(-2.32 -3.82)"/><path class="cls-3" d="M2.32,313.5l25.05-5.36,2.37,11.1c.8,3.76-1.17,6.8-4.57,7.53l-4.83,1c-3.4.73-6.44-1.24-7.24-5l-1.8-8.41-8.41,1.8Zm23.3-2.17-12,2.56,1.8,8.41a3.67,3.67,0,0,0,4.34,2.81l4.83-1a3.67,3.67,0,0,0,2.81-4.34Z" transform="translate(-2.32 -3.82)"/><path class="cls-3" d="M27.21,341.78l-1.11-3.3c-.87-2.6-4.29-3-4.29-3L9,339.79l-.81-2.43,17.69-5.94.52,1.56-2.31,1.16.06.17a5.5,5.5,0,0,1,4.23,3.41l1.11,3.3Z" transform="translate(-2.32 -3.82)"/><path class="cls-3" d="M25.79,345.84c2.66-1.22,5.57-.14,6.94,2.86l1.9,4.16c1.37,3,.29,5.91-2.37,7.12l-8.32,3.81c-2.66,1.22-5.57.14-6.94-2.86l-1.9-4.16c-1.45-3.16-.29-5.9,2.37-7.12ZM18.54,352a2.89,2.89,0,0,0-1.44,3.88L19,360a2.89,2.89,0,0,0,3.88,1.44l8.32-3.81a2.89,2.89,0,0,0,1.44-3.88l-1.9-4.16a2.89,2.89,0,0,0-3.88-1.44Z" transform="translate(-2.32 -3.82)"/><path class="cls-3" d="M25.75,377.22c-1.74-2.8-1-5.82,1.45-7.37l7.45-4.65c2.48-1.55,5.51-.85,7.25,1.95l4,6.37,5.9-3.68L53.13,372,31.38,385.57l-.87-1.4,2-1.66-.1-.16A5.5,5.5,0,0,1,27.49,380Zm3.61,1.63c1.45,2.33,5,1.83,5,1.83l9.63-6-4-6.37a2.89,2.89,0,0,0-4-.94L28.55,372a2.89,2.89,0,0,0-.94,4Z" transform="translate(-2.32 -3.82)"/><path class="cls-3" d="M52.08,382.36l-10.62,9a2.89,2.89,0,0,0-.35,4.13L43.24,398c1.77,2.1,5.23,1.09,5.23,1.09l10.34-8.74,1.65,2L46.21,404.33l-1.06-1.26,1.72-1.93-.12-.14a5.5,5.5,0,0,1-5.19-1.6l-2.13-2.51c-2.13-2.52-1.87-5.61.37-7.5l10.62-9Z" transform="translate(-2.32 -3.82)"/><path class="cls-3" d="M66.65,401.8a2.89,2.89,0,0,0-4.14.08l-5.84,6.06a2.89,2.89,0,0,0,.08,4.14l6.06,5.84-1.52,1.58-6.06-5.84c-2.5-2.41-2.43-5.39-.39-7.5l5.84-6.06c2-2.11,5.14-2.16,7.51.12l6.06,5.84-1,1.05-1,0Z" transform="translate(-2.32 -3.82)"/><path class="cls-3" d="M75.64,407.21,77.94,409l4.27-3.62,1.15.91-3.42,4.3,4.16,3.3-1.37,1.72-4.16-3.3-7.06,8.88a2.89,2.89,0,0,0,.47,4.11l2.72,2.16-1.37,1.72-2.72-2.16c-2.58-2-2.93-5.13-1.11-7.43l7.06-8.88-2.29-1.82Z" transform="translate(-2.32 -3.82)"/><path class="cls-3" d="M79.78,433.69l-2.11-1.45,10.59-15.37,2.11,1.45Zm12-17.48-2.11-1.45,2.49-3.62,2.11,1.45Z" transform="translate(-2.32 -3.82)"/><path class="cls-3" d="M92.76,421.46l.55-1,2.22,1.28-3.09,16.37.16.09,12.61-10.9,2.22,1.28-.55,1L92.4,441.52,89.71,440Z" transform="translate(-2.32 -3.82)"/><path class="cls-3" d="M105.09,448l-2.32-1.1,8-16.87,2.32,1.1Zm9.08-19.18-2.32-1.1,1.88-4,2.31,1.1Z" transform="translate(-2.32 -3.82)"/><path class="cls-3" d="M116.35,432.76l2.73,1.07,3-4.71,1.36.54-2,5.11,4.94,1.94-.8,2-4.94-1.94-4.15,10.56a2.89,2.89,0,0,0,1.66,3.79l3.24,1.27-.8,2-3.24-1.27c-3.07-1.2-4.31-4.05-3.24-6.78l4.15-10.56-2.73-1.07Z" transform="translate(-2.32 -3.82)"/><path class="cls-3" d="M132.72,458.23c-2.8,3.76-5.07,5-8.23,4.1l-.88-.25.61-2.11.88.25c1.76.51,3.34-.37,5-2.75l-1.81-18.8.3-1.05,2.46.71L132.13,455l.18.05,9.46-13.64,2.46.71-.3,1.05Z" transform="translate(-2.32 -3.82)"/><path class="cls-3" d="M456.92,379.77c-1.89,2.86-4.78,3.32-7.19,1.73l-7.21-4.77c-2.41-1.59-3-4.58-1.23-7.29l2.18-3.31c1.79-2.7,4.78-3.32,7.19-1.73l4.66,3.08-6.75,10.22,2.55,1.69a2.85,2.85,0,0,0,4-.81l4.77-7.21,1.8,1.19Zm-10.15-3.26,5.36-8.12-2.86-1.89a2.85,2.85,0,0,0-4,.81l-2.18,3.31a2.85,2.85,0,0,0,.82,4Z" transform="translate(-2.32 -3.82)"/></svg>