<svg id="Layer_1" data-name="Layer 1" xmlns="http://www.w3.org/2000/svg" viewBox="0 0 251.1 251.06"><defs><style>.cls-1{fill:#87b09a;}.cls-2,.cls-3{fill:none;stroke:#87b09a;stroke-miterlimit:10;stroke-width:2px;}.cls-3{stroke-linecap:round;}</style></defs><title>PRS</title><path class="cls-1" d="M142,44.51l3.15-27.12,12,1.4c4.07.47,6.46,3.5,6,7.18l-.61,5.23c-.43,3.68-3.46,6.08-7.52,5.61L146,35.75l-1.06,9.1Zm5.76-24.26-1.51,13,9.1,1.06a3.91,3.91,0,0,0,4.32-3.42l.61-5.23a3.91,3.91,0,0,0-3.42-4.32Z" transform="translate(-13.24 -17.4)"/><path class="cls-1" d="M180,34.35l-3.54-1.1c-2.79-.87-5.27,1.83-5.27,1.83l-4.29,13.78L164.32,48l5.91-19,1.68.52-.44,2.72.19.06a5.86,5.86,0,0,1,5.58-1.53l3.54,1.1Z" transform="translate(-13.24 -17.4)"/><path class="cls-1" d="M183.29,38.7c1.43-2.77,4.58-3.78,7.7-2.18l4.33,2.23c3.12,1.61,4.13,4.76,2.7,7.53L193.56,55c-1.43,2.77-4.58,3.78-7.7,2.18l-4.33-2.23c-3.29-1.7-4.13-4.76-2.7-7.53Zm-2,9.92a3.08,3.08,0,0,0,1.34,4.2L186.93,55a3.08,3.08,0,0,0,4.2-1.35L195.6,45a3.08,3.08,0,0,0-1.34-4.2l-4.33-2.23a3.08,3.08,0,0,0-4.2,1.35Z" transform="translate(-13.24 -17.4)"/><path class="cls-1" d="M198.82,65.6c-2.72-2.22-3-5.52-1.07-7.93l5.93-7.25c2-2.42,5.27-2.75,8-.52L217.85,55l4.69-5.74L224.65,51,207.37,72.09,206,71l1.43-2.36-.15-.12a5.86,5.86,0,0,1-5.75-.67ZM203,66c2.26,1.85,5.69.12,5.69.12l7.65-9.36-6.19-5.06a3.08,3.08,0,0,0-4.39.44l-5.92,7.25a3.08,3.08,0,0,0,.44,4.39Z" transform="translate(-13.24 -17.4)"/><path class="cls-1" d="M227.91,65.13l-11.59,9.24a3.08,3.08,0,0,0-.5,4.38L218,81.5c1.82,2.29,5.54,1.32,5.54,1.32l11.29-9,1.7,2.14L221,88.35,219.89,87l1.89-2-.12-.15A5.86,5.86,0,0,1,216.18,83L214,80.21c-2.19-2.75-1.82-6,.63-8L226.21,63Z" transform="translate(-13.24 -17.4)"/><path class="cls-1" d="M241.52,89.28a3.08,3.08,0,0,0-4.2-1.34l-8,4.12a3.08,3.08,0,0,0-1.34,4.2l4.12,8L230,105.31l-4.12-8c-1.7-3.29-.61-6.27,2.17-7.7l8-4.12c2.77-1.43,5.93-.43,7.54,2.69l4.12,8-1.39.72-1.05-.34Z" transform="translate(-13.24 -17.4)"/><path class="cls-1" d="M249.11,99.83l1,3,5.92-.72.49,1.48-5.56,1.83,1.77,5.37-2.22.73-1.77-5.37-11.49,3.78a3.08,3.08,0,0,0-2,3.94l1.16,3.52-2.22.73L233,114.58c-1.1-3.33.39-6.29,3.36-7.27l11.49-3.78-1-3Z" transform="translate(-13.24 -17.4)"/><path class="cls-1" d="M235.37,124.18l-.56-2.67,19.47-4.06.56,2.67Zm22.14-4.62-.56-2.67,4.58-1,.56,2.67Z" transform="translate(-13.24 -17.4)"/><path class="cls-1" d="M254.92,125.6l1.17-.09.2,2.72L240,135.31v.19l17.16,4.59.2,2.72-1.17.09L237,137.3l-.25-3.31Z" transform="translate(-13.24 -17.4)"/><path class="cls-1" d="M236.93,150l.15-2.73,19.86,1.12-.15,2.73Zm22.58,1.27.15-2.73,4.67.26-.15,2.73Z" transform="translate(-13.24 -17.4)"/><path class="cls-1" d="M256.49,156.34l-.52,3.08,5.57,2.13-.26,1.54-5.77-1-.94,5.58-2.31-.39.94-5.58-11.92-2a3.08,3.08,0,0,0-3.6,2.56l-.62,3.65-2.31-.39.62-3.65c.58-3.46,3.28-5.38,6.36-4.86l11.92,2,.52-3.08Z" transform="translate(-13.24 -17.4)"/><path class="cls-1" d="M231.64,175.59c-3.89-3.14-5.12-5.61-4-8.94l.31-.92,2.22.74-.31.92c-.62,1.85.25,3.58,2.72,5.42l20.1-1.12,1.11.37-.86,2.59-17.82.44-.06.18,14.13,10.66-.86,2.59-1.11-.37Z" transform="translate(-13.24 -17.4)"/><path class="cls-1" d="M201.08,219.56l15.23,22.66-10,6.75c-3.4,2.28-7.19,1.54-9.25-1.53L195,244.36c-3-4.53.89-8.12.89-8.12l-10.46-4.72-.65-1,2.43-1.63,11,5.53,6.47-4.35-6-8.9Zm11.39,22.18-6.42-9.55-7.61,5.11a3.91,3.91,0,0,0-1.06,5.41l2.07,3.08a3.91,3.91,0,0,0,5.41,1.06Z" transform="translate(-13.24 -17.4)"/><path class="cls-1" d="M176.44,233.8c3.46-1.34,6.3.07,7.43,3l3.38,8.73c1.13,2.91-.21,5.94-3.48,7.2l-4,1.55c-3.27,1.27-6.3-.07-7.43-3l-2.18-5.64,12.36-4.79-1.2-3.09a3.08,3.08,0,0,0-4-1.78l-8.73,3.38-.84-2.18Zm6.92,9.24-9.82,3.8,1.34,3.45a3.08,3.08,0,0,0,4,1.78l4-1.55a3.08,3.08,0,0,0,1.78-4Z" transform="translate(-13.24 -17.4)"/><path class="cls-1" d="M161.1,250.66l-5.77-.13c-2.79-.08-4.61-1.34-5.13-4.21-.56-3.07,1.32-5.79,4.77-6.42l9.4-1.72.42,2.3-9.4,1.72a3.08,3.08,0,0,0-2.51,3.63c.28,1.53,1.2,2.2,3,2.23l5.77.13c2.78,0,4.61,1.34,5.13,4.21.57,3.11-1.32,5.79-4.77,6.42l-8.63,1.58-.28-1.53.63-.91,7.86-1.44a3.08,3.08,0,0,0,2.51-3.63C163.81,251.36,162.89,250.69,161.1,250.66Z" transform="translate(-13.24 -17.4)"/><path class="cls-1" d="M142.92,241.1l2.73-.14,1.05,19.86L144,261Zm1.19,22.59,2.73-.14.25,4.67-2.73.14Z" transform="translate(-13.24 -17.4)"/><path class="cls-1" d="M136.37,268.46l-2.73-.1.8-21.82a3.08,3.08,0,0,0-3-3.23l-.58,0,.09-2.34.58,0c3.51.13,5.76,2.55,5.64,5.67Z" transform="translate(-13.24 -17.4)"/><path class="cls-1" d="M122.17,262.63l2.71.35-.6,4.64-2.71-.35ZM125,240.19l2.71.35-2.53,19.73-2.71-.35Z" transform="translate(-13.24 -17.4)"/><path class="cls-1" d="M107.66,236.22l-.35,2.74.19.05a5.86,5.86,0,0,1,5.53-1.72l3,.83c3.57,1,5,3.81,4.2,6.82l-.31,1.13c-.83,3-3.7,4.65-7.09,3.72l-7.33-2-.72,2.63a3.08,3.08,0,0,0,2.18,3.84l8.27,2.27-.62,2.26-8.27-2.27c-3.39-.93-5-3.81-4.2-6.82L106,235.76Zm4.75,3.33c-2.82-.78-5.26,2.2-5.26,2.2l-1,3.76,7.33,2a3.08,3.08,0,0,0,3.84-2.18l.31-1.13a3.08,3.08,0,0,0-2.18-3.83Z" transform="translate(-13.24 -17.4)"/><path class="cls-1" d="M89.23,227.82,82.46,241a3.08,3.08,0,0,0,1.35,4.2l3.12,1.61c2.6,1.34,5.59-1.07,5.59-1.07l6.6-12.83,2.43,1.25-9.1,17.69-1.56-.8.9-2.61-.17-.09a5.86,5.86,0,0,1-5.76.55l-3.12-1.61c-3.12-1.61-4.13-4.76-2.71-7.53l6.78-13.18Z" transform="translate(-13.24 -17.4)"/><path class="cls-1" d="M67.7,234.15a3.08,3.08,0,0,0,4.38-.5l5.58-7a3.08,3.08,0,0,0-.5-4.38l-7-5.58,1.45-1.83,7,5.58c2.9,2.3,3.13,5.47,1.19,7.91l-5.58,7c-1.94,2.44-5.23,2.82-8,.64l-7-5.58,1-1.22,1.1-.13Z" transform="translate(-13.24 -17.4)"/><path class="cls-1" d="M64.25,206.67c4.67-1.78,7.42-1.61,9.75,1l.64.73L72.89,210l-.64-.73c-1.29-1.46-3.22-1.58-6.06-.38L57.05,226.8l-.88.77-1.81-2,8.58-15.63-.13-.15L46.5,216.61l-1.81-2,.88-.77Z" transform="translate(-13.24 -17.4)"/><path class="cls-1" d="M21.06,161.45c-3.69.29-6.63-2.21-7-6.29l-.86-10.69,1.75-.14.84.71.79,9.91a3.91,3.91,0,0,0,4.2,3.58l1.17-.09A3.5,3.5,0,0,0,25.43,155l1-7.32a6,6,0,0,1,5.83-5.36l1.75-.14c3.69-.3,6.63,2.21,7,6.29l.93,11.66-2.53.2-.93-11.66a3.91,3.91,0,0,0-4.2-3.58l-1.75.14A3.5,3.5,0,0,0,29,148.68l-1,7.32a6,6,0,0,1-5.83,5.36Z" transform="translate(-13.24 -17.4)"/><path class="cls-1" d="M41.32,132.92c-.46,3.68-3,5.52-6.14,5.13l-9.29-1.15c-3.1-.38-5.13-3-4.7-6.48l.53-4.26c.43-3.48,3-5.52,6.14-5.13l6,.75-1.63,13.16,3.29.41A3.08,3.08,0,0,0,39,132.63l1.15-9.29,2.32.29Zm-11.41,1.73,1.3-10.45-3.68-.46A3.08,3.08,0,0,0,24,126.45l-.53,4.26a3.08,3.08,0,0,0,2.71,3.48Z" transform="translate(-13.24 -17.4)"/><path class="cls-1" d="M28.69,107.94a3.08,3.08,0,0,0,2,3.93l8.53,2.77a3.08,3.08,0,0,0,3.93-2l2.77-8.53,2.23.72-2.77,8.53c-1.14,3.52-4,4.84-7,3.88l-8.53-2.77c-3-1-4.47-3.91-3.39-7.25l2.77-8.53,1.48.48.5,1Z" transform="translate(-13.24 -17.4)"/><path class="cls-1" d="M33.28,90.12,46.2,97.37a3.08,3.08,0,0,0,4.25-1.19l1.72-3.06c1.43-2.55-.87-5.63-.87-5.63L38.72,80.42,40.05,78,57.4,87.78l-.86,1.53-2.57-1-.1.17a5.86,5.86,0,0,1,.33,5.78l-1.72,3.06c-1.72,3.06-4.9,4-7.62,2.43L31.94,92.5Z" transform="translate(-13.24 -17.4)"/><path class="cls-1" d="M53.7,64.22l-2.35,2.86c-1.86,2.26-.28,5.57-.28,5.57l11.16,9.16-1.73,2.11L45.11,71.3l1.11-1.36,2.36,1.43.12-.15a5.86,5.86,0,0,1,.68-5.75l2.35-2.86Z" transform="translate(-13.24 -17.4)"/><path class="cls-1" d="M55.59,55.62l-2,1.91-3.27-3.35,2-1.91ZM71.4,71.8l-2,1.91L55.55,59.48l2-1.91Z" transform="translate(-13.24 -17.4)"/><path class="cls-1" d="M61.3,53.88,63.76,52l-2.68-5.33,1.23-1,3.6,4.61,4.46-3.48,1.44,1.84-4.46,3.48,7.44,9.53a3.08,3.08,0,0,0,4.38.54l2.92-2.28,1.44,1.84L80.6,64c-2.77,2.16-6.05,1.75-8-.71L65.2,53.81l-2.46,1.92Z" transform="translate(-13.24 -17.4)"/><path class="cls-1" d="M92.62,56.44c.75,4.94,0,7.59-3.06,9.31l-.85.48-1.14-2,.85-.48c1.7-1,2.23-2.81,1.65-5.84L74.46,45.15l-.57-1,2.38-1.33L89.73,54.48l.17-.1L86.66,37,89,35.66l.57,1Z" transform="translate(-13.24 -17.4)"/><path class="cls-1" d="M117.26,42.73a8,8,0,1,1,8-8A8,8,0,0,1,117.26,42.73Zm0-14.08a6,6,0,1,0,6,6A6,6,0,0,0,117.26,28.65Z" transform="translate(-13.24 -17.4)"/><path class="cls-1" d="M248.79,142.2" transform="translate(-13.24 -17.4)"/><path class="cls-1" d="M29.21,142.2" transform="translate(-13.24 -17.4)"/><path class="cls-1" d="M46.24,202a1,1,0,0,1-.85-.46c-1.64-2.58-3.19-5.26-4.6-8a1,1,0,1,1,1.77-.93c1.39,2.65,2.91,5.28,4.52,7.82a1,1,0,0,1-.84,1.54Z" transform="translate(-13.24 -17.4)"/><path class="cls-1" d="M139,252" transform="translate(-13.24 -17.4)"/><circle class="cls-2" cx="104.02" cy="17.29" r="6.88"/><circle class="cls-2" cx="25.19" cy="169.21" r="6.88"/><circle class="cls-2" cx="213.99" cy="189.69" r="6.88"/><path class="cls-3" d="M102.74,38.34Q106.56,37,110.5,36" transform="translate(-13.24 -17.4)"/><path class="cls-3" d="M35.84,180.24q-1.49-4-2.67-8.17" transform="translate(-13.24 -17.4)"/><path class="cls-3" d="M46,200.67q-2.37-3.75-4.45-7.7" transform="translate(-13.24 -17.4)"/><path class="cls-3" d="M222.79,212.59q-2.24,2.66-4.64,5.18" transform="translate(-13.24 -17.4)"/><path class="cls-3" d="M235.08,194.62q-1.89,3.46-4,6.76" transform="translate(-13.24 -17.4)"/><path class="cls-3" d="M124,33.27q3.45-.46,7-.71" transform="translate(-13.24 -17.4)"/></svg>