<svg id="Layer_1" data-name="Layer 1" xmlns="http://www.w3.org/2000/svg" viewBox="0 0 92.59 110"><defs><style>.cls-1{fill:#80b09c;}</style></defs><title>Secure-Icon</title><path class="cls-1" d="M55,110l-1.27-.56C52.79,109,30.35,98.8,18,71.41,5.19,43.07,9.29,21.4,9.47,20.5L10,17.84l2.7.16c1,.06,1.94.09,2.9.09,22,0,37-15.55,37.14-15.71L55,0l2.26,2.39c.14.15,15.15,15.7,37.14,15.7,1,0,1.93,0,2.89-.09l2.72-.16.52,2.66c.19.91,4.27,22.57-8.53,50.91C79.64,98.8,57.21,109,56.26,109.44L55,110M15.23,24.3c-.6,6.34-1,23.59,8.43,44.56A73.87,73.87,0,0,0,55,103.12,74.23,74.23,0,0,0,86.34,68.86c9.46-21,9-38.22,8.42-44.56C74.83,24.49,60.37,13.56,55,8.8c-5.34,4.73-19.67,15.5-39.4,15.5A1.15,1.15,0,0,1,15.23,24.3Z" transform="translate(-8.71)"/><path class="cls-1" d="M86.84,29.73C67.82,30.9,55,17.3,55,17.3S42.18,30.9,23.16,29.73c0,0-3.17,15.94,6.22,36.75,9,20,25.62,27.34,25.62,27.34s16.6-7.38,25.62-27.34C90,45.67,86.84,29.73,86.84,29.73M74,43.4,59,70.66a4.66,4.66,0,0,1-1,1.56,4.71,4.71,0,0,1-3,1.37h-.08l-.33,0a4.83,4.83,0,0,1-2.3-.59,4.89,4.89,0,0,1-1.4-1.18l-11-11a4.72,4.72,0,0,1,6.68-6.68l6.91,6.91,12.3-22.25A4.72,4.72,0,1,1,74,43.4Z" transform="translate(-8.71)"/></svg>
