<svg id="Layer_1" data-name="Layer 1" xmlns="http://www.w3.org/2000/svg" viewBox="0 0 105.42 132.16"><defs><style>.cls-1{fill:#87b09a;}</style></defs><title>users</title><path class="cls-1" d="M27.38,123.16h-2.6V9.5h86.92v2.2a2,2,0,1,0,4,0V7.5a2,2,0,0,0-2-2H22.78a2,2,0,0,0-2,2V125.16a2,2,0,0,0,2,2h4.6a2,2,0,1,0,0-4Z" transform="translate(-20.78 -5.5)"/><path class="cls-1" d="M124.19,16H33.28a2,2,0,0,0-2,2V135.66a2,2,0,0,0,2,2h90.92a2,2,0,0,0,2-2V18A2,2,0,0,0,124.19,16Zm-2,117.66H35.28V20h86.92Z" transform="translate(-20.78 -5.5)"/><path class="cls-1" d="M46.49,63.88a2,2,0,0,0,2-2,13.6,13.6,0,0,1,8.77-12.69,10.72,10.72,0,0,0,9.67,0,13.6,13.6,0,0,1,8.77,12.69,2,2,0,0,0,4,0,17.59,17.59,0,0,0-9.26-15.47,10.84,10.84,0,1,0-16.69,0,17.59,17.59,0,0,0-9.26,15.47A2,2,0,0,0,46.49,63.88ZM62.1,32.67a6.84,6.84,0,1,1-6.84,6.84A6.85,6.85,0,0,1,62.1,32.67Z" transform="translate(-20.78 -5.5)"/><path class="cls-1" d="M87.17,54.83H106a2,2,0,1,0,0-4H87.17a2,2,0,1,0,0,4Z" transform="translate(-20.78 -5.5)"/><path class="cls-1" d="M87.17,63.88h26.67a2,2,0,0,0,0-4H87.17a2,2,0,0,0,0,4Z" transform="translate(-20.78 -5.5)"/><path class="cls-1" d="M44.49,81.17h69.34a2,2,0,0,0,0-4H44.49a2,2,0,0,0,0,4Z" transform="translate(-20.78 -5.5)"/><path class="cls-1" d="M44.49,90.23h63.34a2,2,0,0,0,0-4H44.49a2,2,0,0,0,0,4Z" transform="translate(-20.78 -5.5)"/><path class="cls-1" d="M44.49,99.3h69.34a2,2,0,0,0,0-4H44.49a2,2,0,0,0,0,4Z" transform="translate(-20.78 -5.5)"/><path class="cls-1" d="M44.49,108.37h63.34a2,2,0,0,0,0-4H44.49a2,2,0,0,0,0,4Z" transform="translate(-20.78 -5.5)"/><path class="cls-1" d="M44.49,117.43h69.34a2,2,0,0,0,0-4H44.49a2,2,0,0,0,0,4Z" transform="translate(-20.78 -5.5)"/><path class="cls-1" d="M44.49,126.5h63.34a2,2,0,0,0,0-4H44.49a2,2,0,1,0,0,4Z" transform="translate(-20.78 -5.5)"/></svg>